<svg width="447" height="494" fill="none" xmlns="http://www.w3.org/2000/svg"><g clip-path="url(#a)"><path fill="#fff" d="M0 0h447v494H0z"/><g opacity=".5" filter="url(#b)"><path fill-rule="evenodd" clip-rule="evenodd" d="M13.98-109.069c43.792 6.239 88.397-12.071 127.706 6.596 56.288 26.73 129.998 58.562 131.299 116.4 1.301 57.854-80.659 80.723-125.955 121.27-44.515 39.847-70.808 106.616-133.05 110.576-63.446 4.036-114.188-46.466-153.016-92.378-33.628-39.764-39.371-89.375-43.057-139.469-4.089-55.552-29.27-127.96 21.051-159.525 51.253-32.151 113.55 27.773 175.022 36.53Z" fill="#FFB940"/></g></g><defs><clipPath id="a"><path fill="#fff" d="M0 0h447v494H0z"/></clipPath><filter id="b" x="-342" y="-305" width="765" height="701" filterUnits="userSpaceOnUse" color-interpolation-filters="sRGB"><feFlood flood-opacity="0" result="BackgroundImageFix"/><feBlend in="SourceGraphic" in2="BackgroundImageFix" result="shape"/><feGaussianBlur stdDeviation="75" result="effect1_foregroundBlur_1129_869"/></filter></defs></svg>