<svg width="655" height="671" fill="none" xmlns="http://www.w3.org/2000/svg"><g clip-path="url(#a)"><path fill="#fff" d="M0 0h655v671H0z"/><g opacity=".5" filter="url(#b)"><path fill-rule="evenodd" clip-rule="evenodd" d="M674.818 181.051c44.929 3.09 91.203-11.131 128.613 25.925 45.292 44.862 86.597 110.258 90.282 190.892 3.84 84.048-31.387 159.171-71.566 218.671-40.125 59.424-90.969 114.476-147.329 105.494-53.413-8.512-91.996-78.764-118.758-147.899-20.534-53.046-3.192-115.313-6.724-176.266-4.216-72.75-47.682-154.049-15.626-209.438 31.881-55.087 92.233-10.739 141.108-7.379Z" fill="#ED6A8C"/></g><g opacity=".5" filter="url(#c)"><path fill-rule="evenodd" clip-rule="evenodd" d="M485.747 502.711c105.425-5.821 226.503 1.79 293.751 45.134 64.692 41.697 25.32 101.619 17.374 155.397-6.973 47.191-3.017 96.356-59.969 132.864-61.961 39.718-154.076 70.378-251.156 66.575-93.136-3.648-156.951-46.846-216.526-84.894-52.334-33.423-91.847-71.193-95.757-114.545-4.12-45.679 19.09-90.727 74.057-126.024 60.976-39.155 142.846-69.241 238.226-74.507Z" fill="#5EC0F0"/></g></g><defs><filter id="b" x="372" y="11" width="672" height="862" filterUnits="userSpaceOnUse" color-interpolation-filters="sRGB"><feFlood flood-opacity="0" result="BackgroundImageFix"/><feBlend in="SourceGraphic" in2="BackgroundImageFix" result="shape"/><feGaussianBlur stdDeviation="75" result="effect1_foregroundBlur_1129_887"/></filter><filter id="c" x="23" y="351" width="943" height="702" filterUnits="userSpaceOnUse" color-interpolation-filters="sRGB"><feFlood flood-opacity="0" result="BackgroundImageFix"/><feBlend in="SourceGraphic" in2="BackgroundImageFix" result="shape"/><feGaussianBlur stdDeviation="75" result="effect1_foregroundBlur_1129_887"/></filter><clipPath id="a"><path fill="#fff" d="M0 0h655v671H0z"/></clipPath></defs></svg>