<svg width="25" height="13" viewBox="0 0 25 13" fill="none" xmlns="http://www.w3.org/2000/svg">
<path d="M17.5627 0.593757C17.4836 0.672195 17.4208 0.765514 17.378 0.868333C17.3351 0.971152 17.3131 1.08143 17.3131 1.19282C17.3131 1.3042 17.3351 1.41449 17.378 1.51731C17.4208 1.62013 17.4836 1.71344 17.5627 1.79188L21.4439 5.67313H1.58203C1.35825 5.67313 1.14364 5.76203 0.98541 5.92026C0.827176 6.07849 0.738281 6.29311 0.738281 6.51688C0.738281 6.74066 0.827176 6.95527 0.98541 7.1135C1.14364 7.27174 1.35825 7.36063 1.58203 7.36063H21.427L17.5627 11.2166C17.4055 11.3747 17.3173 11.5885 17.3173 11.8114C17.3173 12.0343 17.4055 12.2482 17.5627 12.4063C17.7207 12.5634 17.9346 12.6516 18.1575 12.6516C18.3804 12.6516 18.5943 12.5634 18.7523 12.4063L24.1186 7.04001C24.1908 6.97071 24.2483 6.88753 24.2875 6.79545C24.3268 6.70338 24.347 6.60432 24.347 6.50423C24.347 6.40413 24.3268 6.30507 24.2875 6.213C24.2483 6.12093 24.1908 6.03774 24.1186 5.96844L18.7608 0.593757C18.6823 0.514674 18.589 0.451904 18.4862 0.409068C18.3834 0.366232 18.2731 0.344177 18.1617 0.344177C18.0503 0.344177 17.9401 0.366232 17.8372 0.409068C17.7344 0.451904 17.6411 0.514674 17.5627 0.593757Z" fill="white"/>
</svg>
