<svg width="16" height="16" viewBox="0 0 16 16" fill="none" xmlns="http://www.w3.org/2000/svg">
<path d="M2.13195 12.5472H14.0187C14.1391 12.5468 14.2571 12.5136 14.3599 12.4512C14.4628 12.3887 14.5467 12.2994 14.6026 12.1928C14.6585 12.0863 14.6843 11.9665 14.6772 11.8463C14.6701 11.7262 14.6303 11.6103 14.5622 11.511L8.61883 2.92614C8.37251 2.57019 7.7795 2.57019 7.53251 2.92614L1.58912 11.511C1.52032 11.6101 1.47998 11.726 1.47247 11.8464C1.46496 11.9667 1.49058 12.0868 1.54653 12.1936C1.60249 12.3004 1.68664 12.3898 1.78985 12.4522C1.89306 12.5145 2.01138 12.5474 2.13195 12.5472Z" fill="#5EC0F0"/>
</svg>
