<svg width="16" height="17" viewBox="0 0 16 17" fill="none" xmlns="http://www.w3.org/2000/svg">
<path d="M2.13195 4.15095H14.0187C14.1391 4.15132 14.2571 4.18452 14.3599 4.24695C14.4628 4.30938 14.5467 4.3987 14.6026 4.50527C14.6585 4.61185 14.6843 4.73166 14.6772 4.85179C14.6701 4.97193 14.6303 5.08785 14.5622 5.18708L8.61883 13.772C8.37251 14.1279 7.7795 14.1279 7.53251 13.772L1.58912 5.18708C1.52032 5.08806 1.47998 4.97208 1.47247 4.85174C1.46496 4.7314 1.49058 4.61131 1.54653 4.50451C1.60249 4.3977 1.68664 4.30828 1.78985 4.24595C1.89306 4.18361 2.01138 4.15076 2.13195 4.15095Z" fill="#5EC0F0"/>
</svg>
