<svg width="178" height="204" fill="none" xmlns="http://www.w3.org/2000/svg"><path d="M75.964 153.214c.389-1.02 8.563-.132 11.424.439l1.81 8.741c-.011-.806-1.881 15.994-1.881 15.994s-6.244.612-9.748-.643c-.205-1.224-1.993-23.511-1.605-24.531Z" fill="#DB4E58"/><path d="M99.733 155.754c.746 7.211 1.124 16.84 1.124 22.022-5.978 1.265-12.12.214-12.12.214s-1.164-6.253-2.216-11.516l-2.116-10.475c4.854.081 11.138-.398 15.328-.245Z" fill="#F2606A"/><path d="m113.824 58.66-49.172-.204 49.172.204Zm0 0c6.499.02 11.7 5.253 11.618 11.69l-11.618-11.69ZM53.237 70.05c-.061 4.203-1.349 100.344-1.38 102.714l1.38-102.714Zm0 0c.078-6.147 5.184-11.123 11.413-11.094M53.237 70.05 64.65 58.956m0 0 49.172.204m-49.172-.204 49.172.204m0 0c6.226.02 11.198 5.03 11.12 11.183l-1.379 102.703v.001M113.822 59.16l9.741 113.887m0 0c-.079 6.156-5.194 11.133-11.423 11.104m11.423-11.104-11.423 11.104m0 0-49.172-.204m49.172.204-49.172-.204m0 0c-6.226-.03-11.188-5.04-11.11-11.183l11.11 11.183Zm56.976-18.863v-.001l1.267-95.002c.055-3.986-3.168-7.227-7.19-7.25h-.001l-49.672-.203h-.001c-4.019-.011-7.323 3.192-7.378 7.184-.198 14.41-.636 47.091-.943 70.089-.185 13.808-.323 24.126-.335 24.903v.001c-.055 3.996 3.179 7.238 7.202 7.249l49.671.204c4.021.022 7.325-3.193 7.38-7.174Z" fill="#928DC7" stroke="#111"/><path d="m150.479 98.716-2.392-1.816-2.85.938a.41.41 0 0 1-.522-.52l.981-2.835-1.778-2.418a.41.41 0 0 1 .348-.653l3.004.062 1.747-2.438a.418.418 0 0 1 .736.122l.869 2.866 2.861.918c.327.102.388.53.112.725l-2.473 1.713.021 2.999c0 .347-.389.54-.664.337Z" fill="#F2606A"/><path d="m94.889 35.057-2.402-1.805-2.86.938a.413.413 0 0 1-.522-.53l.991-2.836-1.778-2.417a.415.415 0 0 1 .337-.663l3.005.061 1.757-2.438a.418.418 0 0 1 .736.123l.868 2.876 2.872.908c.327.112.388.54.112.734l-2.472 1.714.02 3.009c0 .347-.399.54-.664.326Z" fill="#00C1A3"/><path d="m23.758 165.903-2.616-2.54-3.576.714a.504.504 0 0 1-.552-.714l1.614-3.264-1.778-3.182a.497.497 0 0 1 .511-.735l3.607.521 2.473-2.673a.506.506 0 0 1 .869.255l.613 3.58 3.31 1.53a.5.5 0 0 1 .032.898l-3.23 1.693-.429 3.621a.503.503 0 0 1-.848.296Z" fill="#928DC7"/><path d="M53.77 34.037c-.102-1.203.817-2.305 2.023-2.407 1.257-.102 2.177.724 2.34 1.99.143 1.264-.602 2.304-1.92 2.447-1.34.143-2.33-.734-2.443-2.03Zm.43-3.457-1.534-9.507a1.39 1.39 0 0 1 1.227-1.611l.96-.102a1.39 1.39 0 0 1 1.543 1.295l.583 9.619-2.78.306Z" fill="#FFB940"/><path d="M117.176 26.03s.46-1.326 1.993-1.764c1.359-.388 2.626.49 3.004 1.815.44 1.54-.327 3.723-3.208 6.253-3.771-.643-5.57-2.101-6.009-3.641-.378-1.326.235-2.734 1.604-3.122a3.051 3.051 0 0 1 2.616.46Z" fill="#F2606A"/><path d="M139.484 122.961s.919-.816 2.268-.5c1.196.286 1.788 1.489 1.512 2.662-.327 1.357-1.839 2.693-5.099 3.387-2.595-2.091-3.341-3.958-3.024-5.314.286-1.173 1.349-1.979 2.554-1.694a2.604 2.604 0 0 1 1.789 1.459Z" fill="#FFB940"/><mask id="a" fill="#fff"><path fill-rule="evenodd" clip-rule="evenodd" d="m8.604 55.213 21.52.04c2.179 0 4.01-1.922 4.488-4.496l6.681 3.18-6.552-10.526.012-9.302c.01-3.203-2.043-5.814-4.588-5.814l-21.51-.041c-2.544 0-4.608 2.601-4.608 5.814l-.03 15.33c0 3.203 2.053 5.815 4.587 5.815Z"/></mask><path fill-rule="evenodd" clip-rule="evenodd" d="m8.604 55.213 21.52.04c2.179 0 4.01-1.922 4.488-4.496l6.681 3.18-6.552-10.526.012-9.302c.01-3.203-2.043-5.814-4.588-5.814l-21.51-.041c-2.544 0-4.608 2.601-4.608 5.814l-.03 15.33c0 3.203 2.053 5.815 4.587 5.815Z" fill="#E1F3FE"/><path d="m30.124 55.253-.002 1h.002v-1Zm-21.52-.04.002-1h-.002v1Zm26.008-4.456.43-.903-1.176-.56-.238 1.28.984.183Zm6.681 3.18-.43.904 3.084 1.467-1.805-2.899-.849.529Zm-6.552-10.526h-1v.286l.151.243.849-.529Zm.012-9.302-1-.003v.002h1Zm-4.588-5.814-.002 1h.002v-1Zm-21.51-.041.002-1h-.002v1Zm-4.608 5.814 1 .002v-.002h-1Zm-.03 15.33-1-.001v.002h1Zm26.11 4.855-21.52-.04-.005 2 21.52.04.004-2Zm3.501-3.678c-.423 2.28-1.97 3.678-3.504 3.678v2c2.823 0 4.939-2.445 5.47-5.313l-1.966-.365Zm8.095 2.46-6.681-3.18-.86 1.805 6.681 3.18.86-1.805Zm-7.83-9.095 6.551 10.526 1.698-1.057-6.552-10.526-1.698 1.057Zm-.14-9.832-.012 9.302 2 .003.012-9.303-2-.002Zm-3.588-4.813c1.785 0 3.598 1.93 3.588 4.81l2 .007c.012-3.525-2.284-6.817-5.588-6.817v2Zm-21.512-.041 21.51.04.004-2-21.51-.04-.004 2Zm-3.606 4.814c0-2.89 1.82-4.814 3.608-4.814v-2c-3.3 0-5.608 3.277-5.608 6.814h2Zm-.03 15.333.03-15.331-2-.004-.03 15.33 2 .005Zm3.587 4.812c-1.773 0-3.588-1.93-3.588-4.814h-2c0 3.52 2.293 6.814 5.588 6.814v-2Z" fill="#111" mask="url(#a)"/><path d="M27.345 42.075c-.174 4.386-3.883 7.803-8.277 7.63-4.394-.184-7.817-3.887-7.644-8.273a7.958 7.958 0 0 1 8.288-7.619c4.393.173 7.817 3.876 7.633 8.262Z" fill="#FFB940"/><path d="M15.083 42.84a4.255 4.255 0 0 0 4.087 4.417 4.248 4.248 0 0 0 4.425-4.07l-8.512-.347Z" fill="#fff"/><path d="m18.66 119.095-4.18-.938-1.134 3.825-4.16-.745-1.532 3.519-3.199-.051-.03 1.622 4.292.061 1.45-3.335 4.323.775 1.114-3.764 3.78.857-.725-1.826Z" fill="#FFB940"/><path d="m135.283 50.327.327 4.263 3.995-.04.501 4.192 3.822.428.889 3.07 1.563-.448-1.196-4.111-3.617-.408-.531-4.355-3.924.04-.297-3.865-1.532 1.234Z" fill="#928DC7"/><path d="m24.953 83.62-3.453.826-1.962-5.406-5.202.591-2.135-3.804-1.931 1.07 2.85 5.1 4.936-.57 2.034 5.63 5.211-1.255-.348-2.182Z" fill="#00C1A3"/><path d="M101.929 78.601s1.073 5.386.91 6.334c-.061.419-.685 1.173-1.002 2.346-.531 1.908-.235 4.437-.235 4.437l-.49 6.488-3.393-3.234s.164-3.906.103-5.212c-.123-2.397-.49-3.774-.49-3.774s1.287-1.785 1.358-2.285c.184-1.397.92-3.692 1.318-4.284.542-.795.47 4.09.47 4.09s-.184-5.334.419-5.446c.593-.123.624 3.274.624 3.274s-.593-2.887.408-2.734ZM58.644 82.967c.306-.102.51.143.633.51-.02-.663.041-1.224.297-1.214.347.01.705 1.724.96 3.203-.143-1.194-.225-2.367.133-2 .49.52 1.36 3.265 1.778 4.611.143.48.42.643.879.836 0 0-.174-3.57.51-2.845.685.734.87 6.936.87 6.936l.705 5.446-3.148 1.092-.776-3.132s.194-1.428-.43-3.141c-.592-1.632-1.992-3.56-2.309-3.897-.654-.703-.102-6.405-.102-6.405Z" fill="#D68060"/><path d="M58.93 85.354s.133 1.489.889 2.366c.766.877 3.443 1.673 3.443 1.673l.072-.561-4.404-3.478Z" fill="#C17052"/><path d="M57.292 79.02v.002c.602 1.084.953 2.376 1.284 3.593.077.283.153.562.23.833.425 1.487.907 2.775 1.843 3.64.94.87 2.27 1.254 3.789 1.565.275.056.557.11.843.165 1.243.237 2.56.489 3.679 1.009h.001c1.091.51 2.114 1.339 3.085 2.125.236.192.469.38.7.562 1.216.957 2.376 1.725 3.666 1.88 1.242.15 2.524-.315 3.938-.955.245-.11.494-.227.748-.345 1.16-.542 2.397-1.12 3.65-1.366 1.258-.247 2.627-.18 3.909-.116.277.014.55.028.818.038 1.552.058 2.914.005 4.005-.603 1.12-.622 1.862-1.831 2.589-3.266.12-.239.241-.484.363-.733.584-1.188 1.204-2.45 2.054-3.37l.002-.002c.874-.936 2.08-1.625 3.201-2.266.219-.125.435-.248.645-.371 1.332-.782 2.438-1.56 2.974-2.71.533-1.152.49-2.524.32-4.061-.03-.277-.065-.559-.101-.845-.155-1.256-.319-2.59-.17-3.827.142-1.176.61-2.389 1.056-3.544.111-.288.221-.573.324-.852.533-1.448.906-2.797.649-4.097-.257-1.3-1.115-2.41-2.158-3.548-.2-.218-.407-.438-.617-.66-.852-.903-1.746-1.851-2.322-2.887-.609-1.09-.963-2.39-1.296-3.614-.076-.276-.15-.548-.225-.813-.426-1.488-.905-2.775-1.835-3.64-.946-.871-2.276-1.255-3.794-1.566-.274-.056-.555-.11-.84-.164-1.243-.238-2.558-.49-3.678-1.01-1.097-.51-2.122-1.34-3.094-2.128-.235-.19-.467-.378-.696-.558-1.216-.957-2.377-1.725-3.672-1.88-1.237-.15-2.516.314-3.93.954-.242.11-.49.225-.74.342-1.163.543-2.406 1.123-3.665 1.37L57.292 79.02Zm0 0c-.578-1.033-1.472-1.979-2.323-2.88a60.292 60.292 0 0 1-.624-.666c-1.044-1.14-1.902-2.248-2.16-3.548-.251-1.3.124-2.65.658-4.097.103-.278.212-.56.322-.846.447-1.157.917-2.372 1.06-3.55.148-1.236-.017-2.569-.174-3.824a66.79 66.79 0 0 1-.102-.849c-.17-1.537-.214-2.909.324-4.06.544-1.163 1.63-2.023 2.918-2.886.237-.158.481-.317.729-.478 1.056-.688 2.174-1.414 3.01-2.31l.002-.002c.817-.885 1.45-2.04 2.049-3.133.146-.267.29-.531.435-.786.763-1.345 1.545-2.493 2.684-3.123h.001m-8.81 37.038 8.81-37.039m0 0c1.092-.608 2.454-.661 4.004-.602m-4.004.602 4.004-.602m0 0c.267.01.54.023.818.037m-.818-.037.818.037m0 0c1.28.064 2.647.132 3.9-.115l-3.9.115Z" fill="#FFB940" stroke="#111"/><path d="M84.159 88.74c12.282-2.407 20.304-14.331 17.892-26.591-2.411-12.25-14.357-20.268-26.64-17.86-12.272 2.407-20.293 14.34-17.882 26.59C59.941 83.13 71.886 91.148 84.16 88.74Z" fill="#fff"/><path d="m77.34 75.677-.331-.344-.177-.179-3.863-3.953.002-.002-3.75-3.837 4.376-4.476 3.745 3.832 8.93-9.137 4.376 4.476-8.931 9.137-.505.522-3.872 3.961Z" fill="#00C1A3"/><path d="M63.365 85.751c1.267.623 1.339 7.253 1.339 7.253l-2.269-3.887s.511-.071.674-.642c.328-1.163-.582-3.132.256-2.724Z" fill="#D68060"/><path d="M79.132 104.152s1.707-2.682 3.975-.265c0 0 1.186-1.01 2.381.143 0 0 2.258-1.204 3.546 2.274 0 0 1.196-.469 1.645.959.46 1.438-.102 2.571-.102 2.571s.797.377.746 1.795c-.04 1.193-.95 1.56-.95 1.56s.122 1.979-.603 2.734c-.726.745-1.932.694-1.932.694s-.091 1.101-1.093 1.203c-1.001.102-2.401-.591-3.413.041-1.011.632-3.954.745-3.954.745s-3.475-.796-3.158-4.244c0 0-1.982-1.183-.869-3.294 0 0-1.635-2.632.164-4.723 1.788-2.101 3.617-2.193 3.617-2.193Z" fill="#013741"/><path d="m77.303 122.441 5.385-.245s3.944-.704 4.997-.898c.092-.02 8.113 19.125 10.586 26.439 2.473 7.313 1.962 8.802 1.962 8.802s-8.686 2.867-13.917 3.417c-5.437.572-9.963-1.071-9.963-1.071s2.35-15.351 2.37-20.032c.02-4.682-1.42-16.412-1.42-16.412Z" fill="#FFB940"/><path d="M61.086 96.706s4.098 18.391 4.885 19.421c1.144 1.489 9.309 12.148 9.309 12.148s-.787 19.227-1.39 25.929c-.05.673-.071 4.957.01 5.355.174.897 4.292 1.264 4.732 1.111.408-.142.357-18.278.848-27.244a24.718 24.718 0 0 1 2.125-8.802l1.083-2.438-11.046-9.027s-5.293-16.687-5.497-17.758c-.062-.276-4.7.142-5.059 1.305ZM87.685 121.298l6.295-15.218s3.024-15.29 3.065-15.84c.041-.541 4.721-.847 6.131-1.265.45-.143-2.197 15.901-2.401 18.513-.235 3.1-3.3 15.565-3.3 15.565s-1.666 7.466-.154 12.678c2.524 8.67 6.571 21.074 6.264 21.522-2.054 1.938-9.431 3.326-10.177 2.53-8.278-8.874-5.723-38.485-5.723-38.485Z" fill="#00C1A3"/><path d="m82.515 119.432.173 2.958s-.05 4.325 1.227 4.906c1.277.581 3.77-6.008 3.77-6.008l-1.819-7.221-3.351 5.365Z" fill="#D68060"/><path d="M86.459 116.413c-.44 2.672-2.34 4.63-3.791 5.528l-.153-2.509 3.351-5.365.593 2.346Z" fill="#D68060"/><path d="M90.853 107.936c.225 1.112-.235 2.142-1.022 2.295-.777.153-1.584-.622-1.809-1.734-.214-1.111.235-2.142 1.022-2.295.777-.153 1.594.623 1.809 1.734ZM85.764 104.448c.122.632-.552 1.306-1.503 1.489-.95.184-1.819-.173-1.941-.816-.133-.642.542-1.305 1.492-1.499.95-.184 1.819.183 1.952.826Z" fill="#013741"/><path d="M81.769 106.906c-2.432-.336-4.558 1.653-4.445 4.06a30.44 30.44 0 0 0 .408 3.753c.603 3.377 2.994 6.314 4.527 6.008 1.533-.296 5.334-3.305 4.547-8.109-.49-2.968-2.493-5.355-5.037-5.712Z" fill="#D68060"/><path d="M85.743 113.22c.153.734.767 1.244 1.37 1.122.613-.112.98-.816.837-1.561-.143-.734-.756-1.244-1.369-1.122-.603.113-.98.816-.838 1.561Z" fill="#BF7052"/><path d="M74.81 106.539c-1.34 1.561-1.523 3.56-.41 4.478 1.114.918 3.097.398 4.435-1.163 1.339-1.561 1.513-3.57.399-4.478-1.114-.918-3.096-.398-4.425 1.163Z" fill="#013741"/><path d="M79.142 106.753c.103.541.849.847 1.656.694.817-.163 1.39-.724 1.277-1.275-.102-.541-.848-.857-1.655-.694-.818.163-1.39.724-1.278 1.275ZM75.597 111.782a1.272 1.272 0 0 0 1.502 1.02 1.27 1.27 0 0 0 1.001-1.51 1.288 1.288 0 0 0-1.502-1.02 1.295 1.295 0 0 0-1.001 1.51Z" fill="#013741"/><path d="M58.43 87.261s-.266-4.58.214-4.814c.48-.235.817.54.736 1.285-.072.744.276 3.417.623 4.396.358.99-1.574-.867-1.574-.867ZM102.706 83.09s-.593-3.54-1.329-4.54c-.102-.132-.286-.275-.368.133-.112.581.603 3.376.603 3.376s-.919-4.56-1.533-4.437c-.613.122-.01 1.632.113 2.254.122.633.592 2.764.592 2.764s-1.195-4.773-1.318-5.049c-.122-.285-.623-.255-.674.235-.061.49.797 5.151.797 5.151s-.654-4.845-1.339-4.712c-.695.132.88 6.018.378 6.772l-1.144 1.694 5.222-3.642Z" fill="#D68060"/></svg>