<svg width="298" height="337" fill="none" xmlns="http://www.w3.org/2000/svg"><path d="M297 90.037c0-3.261-2.669-5.93-5.93-5.93H126.465c-3.261 0-5.93 2.669-5.93 5.93v29.609c0 3.261 2.669 5.93 5.93 5.93h152.829l6.862 5.591c.89.678 2.16 0 2.076-1.144l-.339-3.388a1.138 1.138 0 0 1 .508-1.059c3.431 0 8.133-.127 8.472-4.617a6.66 6.66 0 0 0 .127-1.313V90.037Z" fill="#00C1A3"/><path d="M297 90.037c0-3.261-2.669-5.93-5.93-5.93H126.465c-3.261 0-5.93 2.669-5.93 5.93v29.609c0 3.261 2.669 5.93 5.93 5.93h152.829l6.862 5.591c.89.678 2.16 0 2.076-1.144l-.339-3.388a1.138 1.138 0 0 1 .508-1.059c3.431 0 8.133-.127 8.472-4.617a6.66 6.66 0 0 0 .127-1.313V90.037Z" stroke="#000" stroke-miterlimit="10"/><path d="m143.451 92.282 4.024 8.175 9.022 1.313-6.523 6.397 1.525 8.98-8.048-4.236-8.09 4.236 1.524-8.98-6.523-6.397 9.023-1.313 4.066-8.175Z" fill="#FFB940"/><mask id="a" style="mask-type:luminance" maskUnits="userSpaceOnUse" x="130" y="92" width="27" height="26"><path d="m143.438 92.295 4.037 8.179 9.027 1.313-6.532 6.367 1.542 8.988-8.074-4.244-8.073 4.244 1.542-8.988-6.532-6.367 9.027-1.313 4.036-8.18Z" fill="#fff"/></mask><g mask="url(#a)" fill="#FFC86B"><path d="m139.215 119.095-3.939-1.398 9.827-27.32 3.939 1.44-9.827 27.278ZM143.705 120.112l-2.16-.763 9.785-27.279 2.16.763-9.785 27.279Z"/></g><path d="m175.982 92.282 4.024 8.175 9.023 1.313-6.524 6.397 1.525 8.98-8.048-4.236-8.09 4.236 1.567-8.98-6.565-6.397 9.064-1.313 4.024-8.175Z" fill="#FFB940"/><mask id="b" style="mask-type:luminance" maskUnits="userSpaceOnUse" x="162" y="92" width="28" height="26"><path d="m175.974 92.295 4.036 8.179 9.027 1.313-6.532 6.367 1.542 8.988-8.073-4.244-8.074 4.244 1.542-8.988-6.532-6.367 9.027-1.313 4.037-8.18Z" fill="#fff"/></mask><g mask="url(#b)"><path d="m171.746 119.095-3.897-1.398 9.785-27.32 3.939 1.44-9.827 27.278ZM176.236 120.112l-2.16-.763 9.785-27.279 2.203.763-9.828 27.279Z" fill="#FFC86B"/><path d="m175.982 92.282 4.024 8.175 9.023 1.313-6.524 6.397 1.525 8.98-8.048-4.236-8.09 4.236 1.567-8.98-6.565-6.397 9.064-1.313 4.024-8.175Z" fill="#FFB940"/></g><path d="m208.513 92.282 4.024 8.175 9.023 1.313-6.523 6.397 1.567 8.98-8.091-4.236-8.09 4.236 1.567-8.98-6.523-6.397 9.022-1.313 4.024-8.175Z" fill="#FFB940"/><mask id="c" style="mask-type:luminance" maskUnits="userSpaceOnUse" x="195" y="92" width="27" height="26"><path d="m208.513 92.295 4.037 8.179 9.027 1.313-6.532 6.367 1.542 8.988-8.074-4.244-8.073 4.244 1.542-8.988-6.532-6.367 9.027-1.313 4.036-8.18Z" fill="#fff"/></mask><g mask="url(#c)"><path d="m204.278 119.095-3.897-1.398 9.827-27.32 3.897 1.44-9.827 27.278ZM208.767 120.112l-2.16-.763 9.827-27.279 2.161.763-9.828 27.279Z" fill="#FFC86B"/><path d="m208.513 92.282 4.024 8.175 9.023 1.313-6.523 6.397 1.567 8.98-8.091-4.236-8.09 4.236 1.567-8.98-6.523-6.397 9.022-1.313 4.024-8.175Z" fill="#FFB940"/></g><path d="m241.045 92.282 4.024 8.175 9.064 1.313-6.565 6.397 1.567 8.98-8.09-4.236-8.048 4.236 1.524-8.98-6.523-6.397 9.023-1.313 4.024-8.175Z" fill="#FFB940"/><mask id="d" style="mask-type:luminance" maskUnits="userSpaceOnUse" x="227" y="92" width="28" height="26"><path d="m241.053 92.295 4.037 8.179 9.026 1.313-6.531 6.367 1.542 8.988-8.074-4.244-8.073 4.244 1.541-8.988-6.531-6.367 9.026-1.313 4.037-8.18Z" fill="#fff"/></mask><g mask="url(#d)"><path d="m236.809 119.095-3.897-1.398 9.827-27.32 3.897 1.44-9.827 27.278ZM241.299 120.112l-2.161-.763 9.828-27.279 2.16.763-9.827 27.279Z" fill="#FFC86B"/><path d="m241.045 92.282 4.024 8.175 9.064 1.313-6.565 6.397 1.567 8.98-8.09-4.236-8.048 4.236 1.524-8.98-6.523-6.397 9.023-1.313 4.024-8.175Z" fill="#FFB940"/></g><path d="m273.788 92.282 4.066 8.175 9.022 1.313-6.565 6.397 1.567 8.98-8.09-4.236-8.049 4.236 1.525-8.98-6.523-6.397 9.023-1.313 4.024-8.175Z" fill="#fff"/><path d="M63.31 26.203h87.13c2.881 0 5.21 2.372 5.21 5.253V65.13c0 2.88-2.329 5.253-5.21 5.253h-3.389c-.677 0-1.228.593-1.143 1.27l.339 3.728a1.363 1.363 0 0 1-2.245 1.186l-7.71-6.184H63.309c-2.88 0-5.252-2.372-5.252-5.252V31.456c0-2.88 2.372-5.253 5.252-5.253Z" fill="#00C1A3"/><path d="M63.31 26.203h87.13c2.881 0 5.21 2.372 5.21 5.253V65.13c0 2.88-2.329 5.253-5.21 5.253h-3.389c-.677 0-1.228.593-1.143 1.27l.339 3.728a1.363 1.363 0 0 1-2.245 1.186l-7.71-6.184H63.309c-2.88 0-5.252-2.372-5.252-5.252V31.456c0-2.88 2.372-5.253 5.252-5.253Z" stroke="#000" stroke-miterlimit="10"/><path d="M83.81 46.874c-1.44 1.186-3.303 1.864-5.294 1.864-2.034 0-3.897-.678-5.337-1.864-4.787 2.033-8.176 6.82-8.176 12.369h26.983a13.396 13.396 0 0 0-8.175-12.369ZM75.762 46.027a5.986 5.986 0 0 0 2.754.635c.974 0 1.906-.212 2.71-.635 2.119-1.017 3.601-3.177 3.601-5.676 0-3.474-2.838-6.312-6.311-6.312a6.3 6.3 0 0 0-6.312 6.312c0 2.499 1.44 4.66 3.558 5.676ZM148.703 36.242H96.645v-.805h52.058v.805ZM148.703 40.563H96.645v-.805h52.058v.805ZM148.703 44.883H96.645v-.805h52.058v.805ZM148.703 49.204H96.645v-.805h52.058v.805ZM148.703 53.524H96.645v-.805h52.058v.805ZM121.891 57.845H96.645v-.805h25.246v.805Z" fill="#fff"/><path d="M242.781 205.675h49.517a4.249 4.249 0 0 1 4.236 4.236v27.194a4.248 4.248 0 0 1-4.236 4.236h-2.711a.979.979 0 0 0-.974 1.059l.296 3.008c.085.974-1.016 1.567-1.821.974l-6.227-5.041h-38.08a4.249 4.249 0 0 1-4.236-4.236v-27.194a4.25 4.25 0 0 1 4.236-4.236Z" fill="#928DC7" stroke="#000" stroke-miterlimit="10"/><path d="M276.032 223.762c0 .89.721 1.652 1.652 1.652.89 0 1.61-.762 1.61-1.652 0-.931-.72-1.651-1.61-1.651-.931 0-1.652.72-1.652 1.651ZM265.866 223.762c0 .89.763 1.652 1.652 1.652.932 0 1.652-.762 1.652-1.652 0-.931-.72-1.651-1.652-1.651-.889 0-1.652.72-1.652 1.651ZM255.743 223.762c0 .89.72 1.652 1.652 1.652.889 0 1.652-.762 1.652-1.652 0-.931-.763-1.652-1.652-1.652-.932 0-1.652.721-1.652 1.652Z" fill="#F2F2F2"/><path d="M291.493 144.807h-47.992a4.872 4.872 0 0 0-4.871 4.871v31.345c0 2.668 2.203 4.871 4.871 4.871h3.135c.678 0 1.186.593 1.101 1.229l-.339 3.431c-.084 1.143 1.229 1.863 2.118 1.143l7.159-5.803h34.818a4.873 4.873 0 0 0 4.872-4.871v-31.345a4.845 4.845 0 0 0-4.872-4.871Z" fill="#FFB940" stroke="#000" stroke-miterlimit="10"/><path d="M260.318 174.5h-4.575a.868.868 0 0 1-.889-.89v-12.03c0-.508.381-.889.889-.889h4.575c.466 0 .889.381.889.889v12.03c0 .509-.423.89-.889.89Z" fill="#0061A8"/><path d="M280.184 162.639a2.214 2.214 0 0 0-2.203-2.202h-6.947l1.017-4.998c.028-.113.042-.241.042-.382 0-.423-.169-.847-.466-1.143a1.66 1.66 0 0 0-2.329 0l-6.1 6.099a2.18 2.18 0 0 0-.635 1.525v11.013c0 1.229.974 2.203 2.202 2.203h9.912c.89 0 1.695-.551 2.033-1.313 0 0 3.474-8.302 3.474-8.599V162.639Z" fill="#F2F2F2"/><path d="M258.666 1h-67.392c-3.77 0-6.82 3.05-6.82 6.82v44.052c0 3.77 3.05 6.862 6.82 6.862h4.405c.932 0 1.652.763 1.525 1.695l-.466 4.829c-.127 1.61 1.694 2.583 2.922 1.567l10.082-8.09h48.924c3.77 0 6.862-3.093 6.862-6.863V7.82c0-3.77-3.092-6.82-6.862-6.82Z" fill="#FFB940" stroke="#000" stroke-miterlimit="10"/><path d="M204.532 15.614a3.778 3.778 0 0 1-3.77 3.77c-2.076 0-3.728-1.695-3.728-3.77a3.706 3.706 0 0 1 3.728-3.728c2.076 0 3.77 1.652 3.77 3.728Z" fill="#fff"/><path d="m199.957 17.562-1.779-1.821c-.085-.085-.085-.255 0-.381a.385.385 0 0 1 .424 0l1.355 1.397 3.008-2.965c.084-.127.254-.127.381 0 .127.085.127.254 0 .381l-3.389 3.39Z" fill="#FFB940"/><path d="M208.175 15.614h44.772" stroke="#fff" stroke-width="2.7" stroke-miterlimit="10" stroke-linecap="round"/><path d="M204.532 28.49a3.778 3.778 0 0 1-3.77 3.77c-2.076 0-3.728-1.694-3.728-3.77a3.733 3.733 0 0 1 3.728-3.727c2.076 0 3.77 1.694 3.77 3.727Z" fill="#fff"/><path d="m199.957 30.439-1.779-1.779a.384.384 0 0 1 0-.424.386.386 0 0 1 .424 0l1.355 1.398 3.008-2.965c.084-.127.254-.127.381 0s.127.297 0 .381l-3.389 3.389Z" fill="#FFB940"/><path d="M208.175 28.49h44.772" stroke="#fff" stroke-width="2.7" stroke-miterlimit="10" stroke-linecap="round"/><path d="M204.532 41.41c0 2.075-1.694 3.727-3.77 3.727a3.706 3.706 0 0 1-3.728-3.727c0-2.076 1.652-3.77 3.728-3.77a3.778 3.778 0 0 1 3.77 3.77Z" fill="#fff"/><path d="m199.957 43.316-1.779-1.78c-.085-.126-.085-.296 0-.38.127-.127.297-.127.424 0l1.355 1.355 3.008-2.965c.084-.085.254-.085.381 0 .127.127.127.297 0 .424l-3.389 3.346Z" fill="#FFB940"/><path d="M208.175 41.41h44.772" stroke="#fff" stroke-width="2.7" stroke-miterlimit="10" stroke-linecap="round"/><path d="M6.252 84.276h51.89c2.88 0 5.252 2.373 5.252 5.253v33.887c0 2.922-2.372 5.294-5.253 5.294h-3.388c-.72 0-1.271.593-1.186 1.313l.339 3.728c.127 1.228-1.271 1.991-2.245 1.228l-7.752-6.269H6.252c-2.88 0-5.252-2.372-5.252-5.294V89.529c0-2.88 2.372-5.252 5.252-5.252Z" fill="#928DC7" stroke="#000" stroke-miterlimit="10"/><path d="M29.93 111.598c.029-1.836.184-3.107.467-3.813.31-.706 1.115-1.652 2.414-2.838 1.243-1.468 2.132-2.598 2.669-3.388.536-.791.804-1.751.804-2.88 0-1.356-.367-2.387-1.1-3.093-.707-.734-1.723-1.101-3.05-1.101-1.159 0-2.133.31-2.923.932-.82.65-1.229 1.581-1.229 2.795h-3.558l-.042-.127c-.057-2.033.663-3.67 2.16-4.913 1.468-1.215 3.332-1.822 5.591-1.822 2.485 0 4.42.636 5.803 1.906 1.384 1.271 2.076 3.05 2.076 5.338 0 1.609-.452 3.092-1.355 4.447-.876 1.356-2.048 2.739-3.516 4.151-.678.678-1.087 1.299-1.229 1.864-.17.537-.254 1.384-.254 2.542h-3.727Zm1.95 7.751a1.943 1.943 0 0 1-1.95-1.948v-.043c0-1.059.848-1.948 1.95-1.948a1.97 1.97 0 0 1 1.948 1.948v.043a1.97 1.97 0 0 1-1.949 1.948Z" fill="#F2F2F2"/><path d="M273.703 326.058c0 5.633-53.371 10.251-119.239 10.251-65.91 0-119.28-4.618-119.28-10.251 0-5.676 53.37-10.251 119.28-10.251 65.868 0 119.239 4.575 119.239 10.251Z" fill="#DBDBDB"/><path d="M77.711 139.088c-18.807 1.441-36.047 13.936-46.679 29.143-18.299 26.177-16.096 63.071-6.269 92.087 14.232 41.977 51.931 64.13 96.747 64.935 24.949.466 48.585.89 69.298-11.902 15.927-9.828 31.26-34.522 30.074-55.278-1.016-17.663-9.869-38.377-29.015-42.274-2.542-.508-5.21-.508-7.794-.847-4.871-.635-8.895 1.186-13.301 3.092-5.083 2.203-10.039 4.617-15.164 6.735-9.276 3.855-19.527 6.608-29.312 4.363-5.591-1.271-11.013-4.363-13.766-9.361-3.474-6.227-2.288-13.894-1.779-20.967.889-12.073-.509-24.314-4.025-35.878-1.44-4.659-3.261-9.192-4.744-13.851-1.016-3.177-2.499-5.38-5.506-6.904-5.676-2.881-12.454-3.559-18.765-3.093Z" fill="#928DC7"/><mask id="e" style="mask-type:luminance" maskUnits="userSpaceOnUse" x="17" y="138" width="212" height="188"><path d="M77.732 139.092c-18.816 1.445-36.072 13.924-46.709 29.151-18.273 26.165-16.083 63.063-6.252 92.083 14.216 41.96 54.812 65.893 99.64 64.944 25.14-.53 44.963 1.817 65.681-10.975 14.063-8.684 32.878-35.585 36.856-52.465 3.795-16.113-1.203-33.942-14.584-44.248-7.959-6.129-19.083-6.527-28.821-4.066-9.738 2.465-18.633 7.417-27.914 11.259-9.285 3.837-19.531 6.599-29.325 4.375-5.587-1.266-11.004-4.371-13.792-9.369-3.477-6.231-2.278-13.873-1.753-20.985.885-12.063-.517-24.284-4.041-35.847-1.423-4.677-3.266-9.209-4.736-13.873-.995-3.155-2.482-5.379-5.506-6.908-5.69-2.877-12.466-3.559-18.744-3.076Z" fill="#fff"/></mask><g mask="url(#e)" stroke="#000" stroke-miterlimit="10"><path d="M68.138 177.38c-5.295 15.419-6.142 34.183-.55 49.644 5.21 14.444 16.52 26.982 31.006 32.108 14.529 5.125 53.075.339 45.365-23.509-1.016-3.092-3.092-5.676-5.04-8.26a373.031 373.031 0 0 1-40.452-65.444c-1.356-2.753-2.711-5.633-5.083-7.539-1.906-1.568-4.575-2.288-6.947-1.525-2.118.677-3.94 2.456-5.507 3.897-3.854 3.515-6.947 7.878-9.319 12.495-1.355 2.584-2.499 5.295-3.473 8.133Z"/><path d="M134.513 256.421s24.356 13.512 19.994 69.383M65.427 218.764s-41.13.297-49.051 29.27M92.833 256.887s-21.476 15.376-32.235 60.742M73.094 166.24s-14.571-14.698-40.58-3.601"/></g><path d="m176.872 295.856-.043 24.272s31.684 7.116 45.07-.085c0 0-1.864-6.566-24.526-15.546l1.313-13.088-21.814 4.447Z" fill="#D68060"/><path d="M205.972 209.615c0 6.989-5.676 12.665-12.665 12.665-6.989 0-12.665-5.676-12.665-12.665 0-6.989 5.676-12.665 12.665-12.665 6.989 0 12.665 5.676 12.665 12.665Z" fill="#78374B"/><path d="m205.972 209.615 1.101 86.241-30.54 1.652-1.652-87.893" fill="#78374B"/><path d="m190.554 197.204-20.375 5.803 2.499 12.114 19.273 3.558-1.397-21.475Z" fill="#78374B"/><path d="M75.042 95.163c-.89-.593-1.779-1.271-2.414-2.118-.381-.466-.678-1.06-.72-1.652-.043-.636.212-1.271.72-1.61.932-.593 2.118.042 3.007.678a858.337 858.337 0 0 1 5.295 3.643 140.97 140.97 0 0 1 3.346 2.33c.763.508 1.78 1.355 1.525 2.414-.254.932-1.016 1.355-1.948 1.101-1.017-.212-1.99-.805-2.923-1.27-.932-.509-1.864-1.031-2.796-1.568a70.968 70.968 0 0 1-3.092-1.948Z" fill="#013741"/><path d="M73.306 99.864c-1.017-.339-2.034-.72-2.923-1.398-.466-.38-.89-.847-1.101-1.44-.212-.55-.127-1.27.254-1.694.762-.805 2.033-.508 3.092-.17 2.005.706 4.024 1.412 6.057 2.118 1.271.452 2.556.918 3.855 1.398.847.297 2.075.805 2.075 1.906.043 1.017-.593 1.568-1.567 1.61-1.017.042-2.118-.254-3.134-.466a63.752 63.752 0 0 1-3.135-.762 62.263 62.263 0 0 1-3.473-1.102Z" fill="#013741"/><path d="M73.687 105.371c-1.101.085-2.203.085-3.22-.212-.592-.169-1.185-.466-1.567-.932-.423-.466-.593-1.143-.38-1.694.38-1.017 1.694-1.228 2.795-1.271l6.438-.254c1.356-.056 2.711-.099 4.067-.127.932 0 2.245 0 2.668 1.017.34.931 0 1.694-.89 2.075-.974.424-2.075.551-3.091.72-1.074.17-2.147.311-3.22.424a39.233 39.233 0 0 1-3.6.254Z" fill="#013741"/><path d="M81.862 105.752c-.254-.974.043-2.033.381-3.007.551-1.525 1.398-2.965 2.5-4.151.55-.509 1.143-1.017 1.863-1.229.72-.254 1.525-.212 2.16.212.085.085.212.17.255.297.127.296-.127.593-.34.847-1.185 1.313-2.117 2.838-2.795 4.447-.339.847-.593 1.695-.847 2.584-.127.636-.381 1.864-1.27 1.822-.933 0-1.695-.975-1.907-1.822Z" fill="#FF5A13"/><path d="M86.31 120.832c-1.864-3.685-2.415-7.879-2.203-11.988.212-3.134.89-6.353 2.796-8.895 1.228-1.694 2.965-2.965 4.828-3.897 3.897-1.99 8.599-2.414 12.835-1.186 6.65 1.949 13.089 8.853 11.352 16.223-4.617-3.007-10.251-4.405-15.673-3.897-1.27.127-2.541.382-3.515 1.144-.847.72-1.313 1.779-1.568 2.838-.466 1.991-.254 4.066.128 6.015.338 2.075.89 4.066 1.1 6.142.086 1.016.128 2.033-.041 3.007-.085.763-.297 1.652-1.102 1.949-.762.254-1.61-.085-2.287-.424a14.43 14.43 0 0 1-2.5-1.694 17.07 17.07 0 0 1-3.811-4.702 13.093 13.093 0 0 1-.34-.635Z" fill="#013741"/><path d="M94.443 123.543s-1.568 10.886-2.754 20.84c-.296 2.33.89 7.201 3.22 7.752l6.311 2.287c9.573-1.101 9.7-5.253 9.531-7.963l-1.186-11.48-15.122-11.436Z" fill="#D68060"/><path d="M109.819 137.436c-2.838 1.356-6.142.085-8.642-1.821-2.33-1.779-6.057-6.947-7.116-9.616 0 0 4.787 18.638 16.308 16.774l-.55-5.337Z" fill="#013741"/><path d="M117.274 106.133c2.075 5.295 2.965 11.268 2.584 16.986-.382 5.125-1.991 12.538-6.651 15.588-2.88 1.864-6.819 1.525-9.784-.212-2.372-1.355-4.151-3.473-5.634-5.718-.466-.678-4.066-6.354-3.473-6.947-.932.932-2.373 1.017-3.431.339-1.06-.678-1.61-1.906-1.695-3.135-.042-.974.17-2.033.89-2.711 1.059-.931 2.668-.72 4.024-.466-1.695-3.981-2.754-12.665-.17-16.138 2.542-3.516 7.074-5.507 11.352-5.04 1.907.211 3.686.846 5.465 1.355 1.694.423 3.431.72 4.447 2.202a20.338 20.338 0 0 1 2.076 3.897Z" fill="#D68060"/><path d="M93.299 125.11s-.127-4.617-2.88-3.897M104.778 130.489s2.033 2.965 5.379 2.203M112.699 120.493c-.212 2.372.551 4.829 2.118 6.65.254.297.508.635.508 1.017-.042.169-.127.296-.212.466-.508.804-1.525 1.27-2.499 1.143" stroke="#000" stroke-miterlimit="10"/><path d="M115.579 120.069c.043.72.551 1.271 1.102 1.229.593-.043.974-.636.932-1.356-.043-.72-.551-1.271-1.102-1.228-.55.042-.974.635-.932 1.355ZM107.574 120.45c.042.721.55 1.271 1.101 1.229.593-.042.974-.635.932-1.356-.042-.72-.508-1.27-1.101-1.228-.551.042-.975.678-.932 1.355ZM115.113 116.681c-.169 0-.381-.043-.466-.212a.366.366 0 0 1 0-.297c.128-.339.509-.508.89-.55 1.228-.255 2.584-.043 3.728.55.296.17.804.466.762.89-.042.339-.466.381-.72.296-.847-.296-1.737-.423-2.626-.508a17.925 17.925 0 0 1-1.568-.169ZM110.2 116.892c.169 0 .381-.042.466-.211a.366.366 0 0 0 0-.297c-.127-.381-.551-.508-.89-.551a5.984 5.984 0 0 0-3.727.593c-.297.17-.805.466-.763.89.043.339.424.381.72.296a11.194 11.194 0 0 1 2.626-.55c.509-.043 1.059-.085 1.568-.17Z" fill="#013741"/><path d="M97.238 122.272c.17-.127.254-.381.297-.635.296-1.695-.17-3.432-.424-5.126-.296-1.694-.339-3.6.635-5.04 1.144-1.652 3.389-2.203 5.422-2.076 2.034.127 3.982.805 6.015 1.017 1.991.211 4.829-.212 6.651-1.017 5.803-2.669-3.643-11.31-7.244-12.792-1.779-.72-1.016.72-2.922.805a13.82 13.82 0 0 0-2.838.466c-.424.127-.89.338-1.314.338-.423.043-.762.17-1.143.382-.424.197-.833.41-1.229.635-1.821 1.101-3.6 2.33-5.21 3.727-2.414 2.076-4.66 4.872-4.405 8.006.212 2.076 1.398 3.982 2.203 5.846.635 1.397 1.567 2.414 2.668 3.515.466.509.974 1.017 1.483 1.483.296.339.89.847 1.355.466Z" fill="#013741"/><path d="M111.767 120.959a3.733 3.733 0 0 0-3.727-3.728 3.706 3.706 0 0 0-3.728 3.728c0 2.033 1.652 3.685 3.728 3.685 2.033 0 3.727-1.652 3.727-3.685ZM121.679 120.959a3.706 3.706 0 0 0-3.728-3.728c-2.033 0-3.685 1.652-3.685 3.728a3.688 3.688 0 0 0 3.685 3.685c2.076 0 3.728-1.652 3.728-3.685Z" stroke="#fff" stroke-width="1.4" stroke-miterlimit="10"/><path d="M111.682 120.281c0-.762.593-1.355 1.313-1.355.763 0 1.356.593 1.356 1.355M104.736 119.18c-.17 0-11.946.339-11.946.339" stroke="#fff" stroke-width="1.5" stroke-miterlimit="10"/><path d="M136.504 167.934a193.905 193.905 0 0 1 7.752 24.695 7775.57 7775.57 0 0 1 23.89-7.328c1.13 5.817 2.273 11.62 3.431 17.409-11.479 6.312-23.339 11.903-35.496 16.647-1.61.636-3.389 1.229-4.914.509-1.821-.848-2.414-3.093-2.753-5.083a27859.6 27859.6 0 0 1-8.684-47.018c-.847-4.49-1.694-8.938-3.007-13.301-.551-1.906-1.483-3.77-1.864-5.76-.212-1.229-.339-2.839.424-3.897.974-1.314 2.711-.763 3.939-.255 1.737.763 3.346 1.949 4.787 3.177 2.838 2.415 5.125 5.422 7.031 8.599 1.991 3.262 3.558 6.777 4.956 10.293.198.424.367.861.508 1.313Z" fill="#FFB940"/><path d="m126.211 161.326-.762-2.372c-1.61-4.617-3.389-9.996-7.116-13.343-2.161-1.863-5.126-3.007-7.879-2.287.635 2.88-1.144 5.973-3.812 7.243-2.669 1.271-5.973.89-8.514-.635-2.542-1.483-4.406-3.982-5.592-6.65-.212-.424-.38-.89-.805-1.102-.423-.169-.889-.042-1.355.085-3.007.847-6.057 1.737-8.81 3.262-7.159 3.981-8.769 11.902-7.413 19.484.762 4.236 2.33 8.345 3.685 12.454 4.956 15.122 7.497 30.921 10.25 46.636.085.466.213.975.551 1.313.255.255.678.382 1.102.509 15.503 3.939 32.573 1.228 46.086-7.328.423-.297.889-.593 1.101-1.059.212-.466.127-1.017.042-1.525a2652.088 2652.088 0 0 0-2.668-15.8c-1.441-8.641-2.923-17.282-4.702-25.838-.932-4.406-2.033-8.769-3.389-13.047Z" fill="#FFB940"/><mask id="f" style="mask-type:luminance" maskUnits="userSpaceOnUse" x="73" y="142" width="65" height="86"><path d="M126.216 161.314a103.79 103.79 0 0 0-.784-2.364c-1.597-4.609-3.363-9.971-7.12-13.317-2.122-1.894-5.096-3.021-7.854-2.326.64 2.885-1.156 5.994-3.824 7.269-2.665 1.275-5.943.872-8.49-.631-2.545-1.5-4.404-3.978-5.616-6.676-.186-.415-.394-.877-.805-1.072-.41-.199-.89-.076-1.325.051-3.025.868-6.079 1.754-8.824 3.287-7.145 3.982-8.78 11.877-7.412 19.468.766 4.261 2.304 8.336 3.66 12.449 4.99 15.135 7.518 30.947 10.284 46.645.08.466.178.962.513 1.296.292.293.707.407 1.105.509 15.503 3.947 32.586 1.236 46.107-7.316.441-.275.898-.588 1.106-1.067.203-.47.122-1.008.038-1.512-.89-5.27-1.778-10.541-2.665-15.813-1.457-8.632-2.91-17.265-4.727-25.826-.936-4.396-2.008-8.772-3.367-13.054Z" fill="#fff"/></mask><g mask="url(#f)"><path d="M112.784 142.477c.805 4.109-1.525 8.514-4.956 10.293-3.474 1.821-7.709 1.228-11.013-.89-3.304-2.118-5.719-5.633-7.286-9.446-.212-.593-.508-1.228-1.016-1.524" stroke="#000" stroke-miterlimit="10"/></g><path d="M74.153 165.011c.762 4.236 2.33 8.345 3.685 12.454 4.956 15.122 7.497 30.921 10.25 46.636.085.466.213.975.551 1.313.255.255.678.382 1.102.509 15.503 3.939 32.573 1.228 46.086-7.328.423-.297.889-.593 1.101-1.059.212-.466.127-1.017.042-1.525a2652.088 2652.088 0 0 0-2.668-15.8c-1.441-8.641-2.923-17.282-4.702-25.838-.932-4.406-2.033-8.769-3.389-13.047l-.762-2.372c-1.61-4.617-3.389-9.996-7.116-13.343a9.952 9.952 0 0 0-2.076-1.397" stroke="#000" stroke-miterlimit="10"/><path d="m213.766 297.974 14.486 19.824s31.134-9.192 39.351-21.984c0 0-4.829-4.829-28.973-1.694l-7.963-10.632-16.901 14.486Z" fill="#D68060"/><path d="M82.413 233.251s3.473 19.569 17.96 21.687c11.437 1.695 41.384-5.591 53.371-8.726a8.943 8.943 0 0 1 8.726 2.5l50.152 52.609 24.653-16.647-59.768-81.709s-32.404-2.669-95.094 30.286Z" fill="#9E4963"/><mask id="g" style="mask-type:luminance" maskUnits="userSpaceOnUse" x="82" y="202" width="156" height="100"><path d="M82.404 233.242s3.486 19.561 17.952 21.705c11.458 1.698 41.405-5.613 53.38-8.73a8.93 8.93 0 0 1 8.713 2.482l50.173 52.6 24.653-16.613-59.751-81.722s-32.421-2.677-95.12 30.278Z" fill="#fff"/></mask><g mask="url(#g)" stroke="#000" stroke-miterlimit="10"><path d="M95.713 212.834s-2.245 20.967 12.242 23.085c11.437 1.695 37.656-6.565 49.601-9.657 3.177-.805 6.481.127 8.726 2.456l46.129 53.202M199.661 290.9l30.837-20.798"/></g><path d="m123.67 209.022 9.827-4.744c1.313-.636 2.669-1.271 4.151-1.398 1.101-.085 2.203.127 3.262.381 4.235.932 9.7 2.584 13.893.127 4.278-2.499 1.567-6.269-1.398-8.472-3.727-2.795-8.514-4.532-13.173-3.939-1.525.17-3.008.593-4.448 1.059a145.484 145.484 0 0 0-15.969 6.057c.847 3.22 1.737 6.82 3.05 9.87.254.678.381.466.805 1.059Z" fill="#D68060"/><path d="M91.054 200.381c.89 3.685 3.092 6.269 7.667 4.532 8.514-3.262 16.943-6.481 25.626-9.234.551-.17 1.441-.508 1.61 0 1.991 5.718 3.558 11.648 5.083 17.452.085.211.127.465.042.635a.993.993 0 0 1-.381.339c-9.53 6.099-19.188 12.03-29.481 16.774-.706.31-1.398.621-2.076.932-9.064 3.981-21.56 10.377-26.558-2.627-4.448-11.563-4.914-25.203-4.745-37.487.128-7.243.72-14.486 1.822-21.603 1.017-6.65 1.779-14.528 5.464-20.204 3.05-4.702 9.361-5.804 12.2-.297 3.303 6.396 2.244 15.334 2.498 22.281 0 4.828.297 9.7.466 14.528.127 4.533-.296 9.531.763 13.979Z" fill="#FFB940"/><path d="M81.481 145.908c2.245-.127 4.49 1.016 5.845 3.685 3.304 6.396 2.245 15.334 2.5 22.281 0 4.828.296 9.7.466 14.528.127 4.533-.297 9.531.762 13.979.89 3.685 3.092 6.269 7.667 4.532 8.514-3.262 16.943-6.481 25.627-9.234.508-.17 1.44-.508 1.609 0M116.893 198.602l6.184 20.289" stroke="#000" stroke-miterlimit="10"/><path d="m192.587 199.745-60.191 12.2c-.551.127-1.144-.255-1.271-.805l-.551-2.796c-.127-.593.254-1.144.847-1.271l60.149-12.241c.593-.127 1.144.254 1.271.847l.551 2.796c.127.55-.255 1.143-.805 1.27Z" fill="#E1F3FE"/><path d="m139.046 208.979-2.626.551c-.085 0-.212-.042-.212-.127l-.212-1.017c0-.084.042-.169.127-.169l2.669-.551c.084 0 .169.043.212.127l.169 1.017c.042.085-.042.169-.127.169ZM143.832 207.963l-2.668.55c-.085.043-.17-.042-.212-.127l-.169-.974c-.043-.127.042-.212.127-.212l2.626-.55c.085 0 .169.042.212.127l.211 1.016c0 .085-.042.17-.127.17Z" fill="#928DC7"/><path d="m223.974 142.816-59.047 12.029-.042 50.619 59.047-12.03.042-50.618Z" fill="#ADD2E8"/><path d="m226.685 142.265-59.047 12.03-.043 50.618 59.048-12.03.042-50.618Z" fill="#E1F3FE"/><path d="M205.21 172.212c-.763-3.727-4.406-6.142-8.176-5.379a6.917 6.917 0 0 0-5.422 8.175c.763 3.728 4.448 6.142 8.176 5.38a6.918 6.918 0 0 0 5.422-8.176Z" fill="#ADD2E8"/></svg>