<svg width="419" height="308" fill="none" xmlns="http://www.w3.org/2000/svg"><path d="M343.089 81.272c0 23.044-18.7 41.749-41.739 41.749-23.039 0-41.706-18.705-41.706-41.749 0-23.044 18.667-41.748 41.706-41.748s41.739 18.704 41.739 41.748Z" fill="#F0EFFF"/><path d="M370.332 266.499c8.846-6.761 16.649-14.667 22.434-24.154 11.805-19.276 13.184-46.424-1.951-63.178-16.85-18.637-45.742-18.132-70.731-15.643-24.99 2.49-53.411 4.407-71.808-12.682-15.001-13.928-18.196-36.164-19.709-56.584-1.548-20.42-2.859-42.354-15.573-58.401-17.153-21.564-51.627-24.154-74.835-9.319-23.207 14.836-35.315 43.296-35.584 70.848-.135 11.808.572 25.971-9.148 32.632-7.77 5.282-18.431 2.691-26.739-1.648-8.341-4.34-16.212-10.295-25.528-11.573-12.41-1.648-24.754 5.854-31.616 16.316C2.65 143.542.43 156.426.06 168.907c-1.077 35.525 12.444 70.949 35.786 97.592h334.486Z" fill="#E1F3FE"/><path d="M2.65 266.062h391.898" stroke="#D3C6FC" stroke-width="2.1" stroke-miterlimit="10"/><path d="M301.451 261.958H186.659c-4.238 0-7.702 3.431-7.702 7.67h122.494v-7.67Z" fill="#7872B1"/><path d="M338.683 210.487h-79.477c-2.186 0-4.204 1.312-5.045 3.331l-21.929 51.369c-.908 2.086.639 4.441 2.926 4.441h82.1a5.525 5.525 0 0 0 5.079-3.33l20.886-48.982c1.379-3.229-1.009-6.829-4.54-6.829Z" fill="#928DC7"/><path d="M297.549 241.168c-1.211 4.945-6.189 8.948-11.133 8.948-4.944 0-7.937-4.003-6.726-8.948 1.21-4.912 6.188-8.915 11.099-8.915 4.944 0 7.971 4.003 6.76 8.915Z" fill="#fff"/><path d="M178.755 273.53h139.479M238.32 277.5h73.961" stroke="#D3C6FC" stroke-width="2.1" stroke-miterlimit="10"/><path d="M369.458 85.713H187.5c-8.24 0-14.899 6.66-14.899 14.903v77.441c0 8.209 6.659 14.903 14.899 14.903h69.992l12.545 12.515 12.545-12.515h86.876c8.24 0 14.9-6.694 14.9-14.903v-77.441c0-8.242-6.66-14.903-14.9-14.903Z" fill="#fff" stroke="#111" stroke-width="2.1" stroke-miterlimit="10"/><path d="M222.177 116.898c0 8.578-6.963 15.542-15.539 15.542-8.577 0-15.539-6.964-15.539-15.542 0-8.612 6.962-15.576 15.539-15.576 8.576 0 15.539 6.964 15.539 15.576Z" fill="#01C1A4"/><path d="m239.061 102.769 2.825 8.545 9.047-.068-7.264 5.383 2.858 8.545-7.332-5.248-7.265 5.349 2.725-8.579-7.366-5.248 9.047-.067 2.725-8.612ZM267.784 102.769l2.858 8.545 9.014-.068-7.265 5.383 2.859 8.545-7.332-5.248-7.265 5.349 2.725-8.579-7.333-5.248 9.014-.067 2.725-8.612ZM296.507 102.769l2.859 8.545 9.013-.068-7.231 5.383 2.859 8.545-7.366-5.248-7.265 5.349 2.725-8.579-7.332-5.248 9.013-.067 2.725-8.612Z" fill="#FFB940"/><path d="m325.263 102.769 2.859 8.545 9.014-.068-7.265 5.383 2.859 8.545-7.332-5.248-7.265 5.349 2.724-8.579-7.332-5.248 9.014-.067 2.724-8.612ZM353.987 102.769l2.859 8.545 9.013-.068-7.264 5.383 2.858 8.545-7.332-5.248-7.265 5.349 2.725-8.579-7.332-5.248 9.013-.067 2.725-8.612Z" fill="#E8ECFF"/><path d="M203.981 139.37h-13.723v3.701h13.723v-3.701ZM207.378 139.37v3.701h20.617v-3.701h-20.617Z" fill="#928DC7"/><path d="M219.89 150.303h-29.632v3.667h29.632v-3.667ZM301.283 150.303h-69.319v3.667h69.319v-3.667ZM313.357 150.303v3.667H366.7v-3.667h-53.343ZM256.483 161.977h-66.225v3.667h66.225v-3.667ZM333.605 161.977v3.667H366.7v-3.667h-33.095ZM325.802 161.977h-58.018v3.667h58.018v-3.667ZM274.78 173.65h-84.522v3.667h84.522v-3.667Z" fill="#E6DFFC"/><path d="M406.051 26.841H287.257c-5.348 0-9.72 4.34-9.72 9.722v23.75c0 5.383 4.372 9.723 9.72 9.723h118.794c5.348 0 9.72-4.34 9.72-9.722v-23.75c0-5.383-4.372-9.723-9.72-9.723Z" fill="#fff" stroke="#111" stroke-width="2.1" stroke-miterlimit="10"/><path d="m323.211 41.071 1.884 5.585 5.886-.034-4.743 3.499 1.85 5.584-4.776-3.431-4.742 3.498 1.783-5.618-4.776-3.397 5.886-.068 1.748-5.618ZM341.979 41.071l1.884 5.585 5.885-.034-4.742 3.499 1.85 5.584-4.776-3.431-4.742 3.498 1.782-5.618-4.809-3.397 5.885-.068 1.783-5.618ZM360.747 41.071l1.849 5.585 5.886-.034-4.742 3.499 1.883 5.584-4.809-3.431-4.709 3.498 1.749-5.618-4.776-3.397 5.886-.068 1.783-5.618ZM379.514 41.071l1.85 5.585 5.886-.034-4.742 3.499 1.883 5.584-4.81-3.431-4.742 3.498 1.783-5.618-4.776-3.397 5.886-.068 1.782-5.618Z" fill="#FFB940"/><path d="m398.248 41.071 1.884 5.585 5.885-.034-4.742 3.499 1.85 5.584-4.776-3.431-4.742 3.498 1.782-5.618-4.809-3.397 5.885-.068 1.783-5.618Z" fill="#E8ECFF"/><path d="M307.673 46.521c0 4.777-3.868 8.68-8.678 8.68-4.776 0-8.643-3.903-8.643-8.68 0-4.777 3.867-8.68 8.643-8.68 4.81 0 8.678 3.903 8.678 8.68Z" fill="#01C1A4"/><path d="M296.204 56.983h-7.635v2.053h7.635v-2.053ZM298.121 56.983v2.053h11.469v-2.053h-11.469Z" fill="#928DC7"/><path d="M100.725 66.37H19.164c-3.7 0-6.693 2.993-6.693 6.66v16.316a6.69 6.69 0 0 0 6.693 6.695h81.561c3.666 0 6.66-2.995 6.66-6.695V73.03c0-3.667-2.994-6.66-6.66-6.66Z" fill="#fff" stroke="#111" stroke-width="2.1" stroke-miterlimit="10"/><path d="m43.85 76.159 1.279 3.835 4.036-.034-3.229 2.389 1.278 3.835-3.296-2.355-3.262 2.422 1.21-3.869-3.262-2.355 4.036-.033 1.21-3.835ZM56.733 76.159l1.278 3.835 4.036-.034-3.229 2.389 1.278 3.835-3.296-2.355-3.262 2.422 1.21-3.869-3.262-2.355 4.036-.033 1.21-3.835ZM69.614 76.159l1.278 3.835 4.036-.034-3.262 2.389 1.278 3.835-3.263-2.355-3.262 2.422 1.21-3.869-3.296-2.355 4.07-.033 1.211-3.835ZM82.496 76.159l1.278 3.835 4.036-.034-3.263 2.389 1.279 3.835-3.263-2.355-3.262 2.422 1.21-3.869-3.296-2.355 4.07-.033 1.21-3.835Z" fill="#FFB940"/><path d="m95.378 76.159 1.278 3.835 4.036-.034-3.263 2.389 1.278 3.835-3.262-2.355-3.262 2.422 1.21-3.869-3.296-2.355 4.07-.033 1.21-3.835Z" fill="#E8ECFF"/><path d="M33.155 79.893c0 3.263-2.657 5.954-5.92 5.954-3.295 0-5.952-2.69-5.952-5.954a5.943 5.943 0 0 1 5.953-5.954c3.262 0 5.92 2.657 5.92 5.954Z" fill="#01C1A4"/><path d="M25.319 87.058h-5.28v1.413h5.28v-1.413ZM26.597 87.058v1.413H34.5v-1.413h-7.904Z" fill="#928DC7"/><path d="M394.015 224.482c0 9.715-7.881 17.599-17.629 17.599-9.713 0-17.594-7.884-17.594-17.599 0-9.75 7.882-17.633 17.594-17.633 9.747 0 17.629 7.884 17.629 17.633Z" fill="#F2606A" stroke="#111"/><path d="M381.835 217.653a5.426 5.426 0 0 0-5.448 5.45c0-3.028-2.422-5.45-5.415-5.45a5.427 5.427 0 0 0-5.449 5.45c0 6.761 10.864 12.48 10.864 12.48s10.897-5.719 10.897-12.48a5.448 5.448 0 0 0-5.449-5.45Z" fill="#fff"/><path d="M55.253 151.515c0 10.025-8.106 18.132-18.129 18.132-9.989 0-18.095-8.107-18.095-18.132 0-9.992 8.106-18.099 18.095-18.099 10.023 0 18.129 8.107 18.129 18.099Z" fill="#F2606A"/><path d="M42.573 144.685a5.448 5.448 0 0 0-5.449 5.45c0-2.994-2.421-5.45-5.415-5.45a5.448 5.448 0 0 0-5.448 5.45c0 6.796 10.863 12.481 10.863 12.481s10.898-5.685 10.898-12.481c0-2.994-2.456-5.45-5.449-5.45Z" fill="#fff"/><path d="m135.942 25.837 3.928 12.059.113.345h13.054l-10.261 7.472-.293.213.111.345 3.9 12.06-10.26-7.47-.294-.215-.295.214-10.254 7.468 3.927-12.056.113-.345-.294-.214-10.261-7.472H131.931l.112-.346 3.899-12.058ZM157.665 58.269l2.856 8.86.112.346h9.691l-7.536 5.487-.294.214.113.345 2.885 8.86-7.531-5.483-.293-.213-.295.213-7.566 5.488 2.887-8.865.112-.345-.293-.214-7.537-5.487H154.667l.112-.345 2.886-8.861ZM143.474 89.615l1.475 4.528.112.346h5.118l-3.838 2.796-.293.213.111.345 1.479 4.564-3.871-2.802-.293-.212-.294.212-3.871 2.802 1.479-4.564.112-.346-.295-.213-3.862-2.796H141.886l.112-.345 1.476-4.528ZM418.5 142.532c0 12.643-10.27 22.915-22.909 22.915s-22.909-10.272-22.909-22.915c0-12.642 10.27-22.914 22.909-22.914S418.5 129.89 418.5 142.532Z" fill="#928DC7" stroke="#111"/><path d="M383.718 130.994v8.107l16.413 3.768-16.413 3.801v8.074l30.405-11.875-30.405-11.875Z" fill="#fff"/><path d="M256.588 34.879v.002c0 18.633-15.148 33.813-33.636 33.747h-.001c-18.793-.033-31.819-14.385-33.575-29.565v-.002c-1.195-10.023 1.489-18.963 8.119-26.524h.001C204.162 4.906 212.736.966 222.881 1h.001c18.396.033 33.806 14.953 33.706 33.879Z" fill="#00C1A3" stroke="#111"/><path d="M227.659 47.699h-9.081c-1.077 0-1.48-.337-1.48-1.447.033-4.71-.202-9.42.134-14.13.236-3.027 1.413-5.718 3.296-8.14 1.279-1.615 2.59-3.196 4.07-4.61.471-.47.706-1.008.706-1.681-.033-.808.068-1.615.034-2.422-.034-1.01.303-1.85 1.245-2.22 1.009-.404 1.95-.203 2.757.537.774.74 1.077 1.716 1.312 2.692.639 2.556.168 4.979-.874 7.3-.37.774-.673 1.581-1.077 2.355-.269.504-.067.673.37.74.236.034.471.034.707.034 2.713-.023 5.426-.034 8.139-.034 1.48 0 2.489.706 2.825 1.985.404 1.413-.168 3.027-1.379 3.667-.504.269-.504.403-.033.74.975.672 1.648 1.58 1.446 2.893-.168.975-.639 1.682-1.614 1.985-.202.067-.471.033-.505.269-.034.269.235.302.404.403 1.311.976 1.479 3.566-.438 4.374-.37.134-.538.235-.134.605.841.808.841 1.817.437 2.826-.37.942-1.211 1.245-2.22 1.245h-9.047v.034ZM213.465 50.39c-2.511 0-5.011.011-7.5.033-.74 0-1.076-.403-1.177-1.11-.034-.336 0-.706 0-1.076v-15.71c0-1.279.336-1.582 1.614-1.582 2.243-.022 4.485-.022 6.727 0 .908 0 1.345.404 1.345 1.245v16.484c-.022.023-.033.045-.033.067-.135.034-.135.101 0 .135.033.605 0 1.177-.673 1.413 0-.168-.067-.337-.269-.27-.202.034 0 .236-.034.37Z" fill="#FDFDFE"/><mask id="a" style="mask-type:luminance" maskUnits="userSpaceOnUse" x="2" y="110" width="243" height="157"><path d="M244.23 110.008H2.39v156.535h241.84V110.008Z" fill="#fff"/></mask><g mask="url(#a)"><path d="M133.854 134.391c.942 4.811.673 9.756 1.042 14.668.37 4.878 1.514 9.957 4.709 13.658 2.725 3.162 6.828 5.147 8.745 8.814 1.48 2.792 1.48 6.223.37 9.218-1.11 2.96-3.195 5.483-5.617 7.501-8.375 6.964-20.853 8.108-30.775 3.566-9.888-4.575-16.985-14.263-19.339-24.894-2.32-10.63-.135-22.035 5.112-31.555 2.96-5.416 7.03-10.395 12.546-13.187 4.54-2.288 11.368-3.129 15.942-.37 3.935 2.354 6.424 8.343 7.265 12.581Z" fill="#013741"/><path d="M212.591 243.758s-1.783 3.802-6.324 1.514l-2.926 5.618 7.366 3.902 5.348-10.126-2.119-9.957s-2.018.773-1.951 2.926c.067 2.12.606 6.123.606 6.123Z" fill="#915046"/><path d="M219.317 256.811c.034-2.321-1.211-4.508-3.296-5.618l-7.736-4.071-1.58 2.994 12.612 6.695Z" fill="#994F39"/><path d="M221.47 260.276c.033-2.321-1.211-4.508-3.297-5.618l-8.845-4.676-1.615 2.994 13.757 7.3Z" fill="#AB6955"/><path d="m211.111 225.188 2.556 7.738 8.139-.068-6.525 4.845 2.556 7.704-6.625-4.71-6.525 4.81 2.455-7.737-6.626-4.743 8.139-.068 2.456-7.771Z" fill="#FFB940"/><path d="m206.133 245.205.37-2.692 3.128-2.455c.941-.774 1.513-1.884 1.513-3.095v-.303l-9.552 3.398-4.137 4.911-2.69 5.046 14.395 7.637 1.009-1.85c1.917-3.634.538-8.175-3.128-10.093l-.908-.504Z" fill="#D68060"/><path d="M219.283 263.001a6.2 6.2 0 0 0-3.296-5.585l-8.845-4.709-1.615 3.027 13.756 7.267Z" fill="#D68060"/><path d="M205.998 244.936a13.332 13.332 0 0 1-3.397 3.599" stroke="#A15545" stroke-width="3.7" stroke-linecap="round" stroke-linejoin="round"/><path d="m154.472 244.902 43.858.706-.168 6.022-52.2 7.973 8.51-14.701Z" fill="#D68060"/><path d="M113.842 188.52h12.882c6.088 0 11.469 3.868 13.453 9.621l18.701 54.7s-1.312 10.126-9.216 11.034c-2.993.37-5.852-1.278-7.231-3.902l-28.589-54.229V188.52Z" fill="#9E4963"/><path d="m146.467 243.994 42.344 1.446-13.957 17.594-26.739 1.581c-3.532.236-6.256-3.094-5.348-6.526l1.749-6.661 1.951-7.434Z" fill="#9E4963"/><path d="M154.472 244.902c-3.465 2.086-7.366 5.315-9.149 8.915M154.472 244.902c-4.473.168-10.023.774-13.285 3.835" stroke="#9E4963" stroke-width="3.7" stroke-miterlimit="10" stroke-linecap="round"/><path d="m81.083 270.301-10.628-73.237 5.314-8.645h48.668l13.352 36.029s-11.166 34.65-11.166 47.535l12.31 35.727-14.53 5.584-11.2-34.347-12.276 34.112-38.309-15.946 18.465-26.812Z" fill="#9E4963"/><path d="m70.455 197.064 5.381-8.746h6.962l2.052 17.426-6.693 44.406-7.702-53.086Z" fill="#7B2D44"/><path d="M122.15 188.688v41.21l-34.508-41.21h34.508Z" fill="#fff"/><path d="M100.994 198.578a40.631 40.631 0 0 1-7.063-2.388l-6.558-7.872h34.777v6.055c-4.877 5.753-14.093 5.887-21.156 4.205Z" fill="#D68060"/><path d="M87.373 188.318v25.735h14.731l-8.173 17.325 29.295-.202-35.853-42.858Z" fill="#7B2D44"/><path d="M122.15 188.318h2.22l17.254 25.735h-13.622l14.698 17.325h-20.348l-.202-43.06Z" fill="#7B2D44"/><path d="M122.318 231.345c-3.33 15.676-5.751 31.588-9.081 47.299" stroke="#383757" stroke-width="3.7" stroke-miterlimit="10"/><path d="M84.85 188.318H72.002c-6.088 0-11.47 3.869-13.454 9.621l-18.7 54.7s.236 4.037 2.12 7.502c2.959 5.484 10.358 6.897 13.318 1.38l29.564-55.979v-17.224Z" fill="#9E4963"/><path d="m102.777 247.089 3.531 3.061 8.442 1.951-.033-.303a3.913 3.913 0 0 0-1.917-2.859l-2.119-1.716.605-2.321 3.565-2.961-4.305-3.734-9.215 6.056 1.446 2.826Z" fill="#915046"/><path d="m110.983 241.1 5.886 5.619 7.164-3.869-3.498 7.334 5.886 5.618-8.072-1.077-3.531 7.334-1.447-8.007-8.072-1.11 7.164-3.835-1.48-8.007Z" fill="#FFB940"/><path d="M116.298 244.061s-1.817-2.826-5.146-.538l-2.926-4.105 6.02-4.205 5.314 7.435-1.211 6.829s-1.648-.404-1.85-2.119c-.168-1.682-.201-3.297-.201-3.297Z" fill="#915046"/><path d="m103.147 247.728-3.498-4.71 13.016-10.059 1.245 1.682c2.388 3.364 2.287 6.392.201 8.007l-2.825 2.254-8.139 2.826Z" fill="#D68060"/><path d="M122.318 237.299c.37-.101.673.269.538.639a4.992 4.992 0 0 1-3.464 2.927l-7.938 1.985-.672-2.725 11.536-2.826ZM121.242 226.029c.37-.302.908-.033.941.438.034 1.951-.773 3.835-2.32 5.079l-7.904 6.359-2.153-2.692 11.436-9.184Z" fill="#D68060"/><path d="M122.89 231.58c.437-.202.941.168.84.639a6.337 6.337 0 0 1-3.363 4.474l-7.87 3.903-1.547-3.061 11.94-5.955Z" fill="#D68060"/><path d="m53.638 241.571 43.186-.269-13.42 18.738-33.465 5.046c-4.34.64-8.005-3.162-7.232-7.468 1.211-6.896 4.137-15.508 10.931-16.047Z" fill="#9E4963"/><path d="m65.376 241.538-14.126.269M65.376 241.504l-14.731 3.936" stroke="#7B2D44" stroke-width="3.7" stroke-miterlimit="10" stroke-linecap="round"/><path d="m95.848 153.869 1.514 37.981a2.859 2.859 0 0 0 2.859 2.759h18.7c2.321 0 3.43-2.826 1.782-4.441-3.598-3.532-7.231-9.52-7.231-19.512v-16.013l-17.624-.774Z" fill="#D68060"/><path d="m104.458 154.239 9.014.404v16.013c0 4.374.706 8.007 1.816 10.967-10.359-3.498-13.857-17.392-10.83-27.384Z" fill="#915046"/><path d="M100.456 168.1c-1.244-.841-2.489-1.884-3.666-3.028-6.02-5.854-9.586-13.726-10.427-22.069-.807-7.737.774-15.441 7.198-20.554 6.861-5.484 17.591-5.955 25.36-2.153 7.399 3.633 11.469 10.529 12.982 18.435.774 3.936.976 7.939 1.043 11.943.101 7.468-1.076 21.799-9.653 23.582-9.283 1.917-16.043-1.548-22.837-6.156Z" fill="#D68060"/><path d="M129.213 135.434c2.455 3.532 3.162 7.939 3.801 12.212a30.94 30.94 0 0 0 0-16.787c-.707-2.557-1.783-5.08-3.532-7.031-1.782-1.985-4.305-3.364-6.962-3.33-4.137.067-9.115 5.786-4.843 9.217 1.311 1.077 3.531.841 5.078 1.245 2.59.706 4.911 2.254 6.458 4.474Z" fill="#002329"/><path d="M119.291 138.563c-2.792 2.556-6.256 4.239-9.956 5.012-3.767.808-8.374.572-11.2 3.6-8.643 9.217-1.379 20.285 3.027 29.57 2.22 4.676 4.541 10.093 3.33 15.374-1.547 6.728-8.106 9.924-14.563 9.958-10.528.034-18.667-7.771-20.786-17.83-1.076-5.18-.336-10.361 1.682-15.239 1.85-4.474 4.843-8.444 6.357-13.086 2.354-7.401-1.01-15.24 1.412-22.775 4.776-15.004 27.849-29.739 41.908-17.527 8.105 7.064 5.448 16.921-1.211 22.943Z" fill="#013741"/><path d="M98.673 141.893c-1.883 1.783-3.127 4.306-3.397 6.897-.302 2.96.505 5.92 1.985 8.544l1.917-.336c.202-3.364 1.043-6.728 2.119-9.89a34.02 34.02 0 0 1 1.782-4.306c-.605-2.658-2.69-2.557-4.406-.909Z" fill="#002329"/><path d="M124.134 149.429a20.883 20.883 0 0 0 2.96 7.031c.505.74 1.076 1.581.841 2.456-.168.807-.976 1.312-1.715 1.715" stroke="#915046" stroke-width="2.4" stroke-miterlimit="10" stroke-linecap="round"/><path d="M121.241 165.644a2.111 2.111 0 0 0 2.456 1.715 2.128 2.128 0 0 0 1.715-2.455 2.127 2.127 0 0 0-2.455-1.75c-1.144.202-1.917 1.312-1.716 2.49Z" fill="#FF7A7A"/><path d="M126.556 164.063c-2.22 1.312-5.045 1.513-7.433.504" stroke="#915046" stroke-width="2.4" stroke-miterlimit="10" stroke-linecap="round"/><path d="M131.601 142.6c-1.917-1.077-3.902-.808-5.382.706M116.701 144.517a8.665 8.665 0 0 0-7.769 1.279" stroke="#452828" stroke-width="3.6" stroke-miterlimit="10" stroke-linecap="round"/><path d="M116.23 150.438c.168 1.043-.504 2.018-1.547 2.187a1.857 1.857 0 0 1-2.186-1.548c-.202-1.009.504-2.018 1.547-2.186 1.009-.169 2.018.504 2.186 1.547ZM130.693 148.756a1.932 1.932 0 0 1-1.548 2.22 1.93 1.93 0 0 1-2.219-1.547c-.169-1.043.538-2.019 1.547-2.187 1.042-.202 2.018.505 2.22 1.514Z" fill="#452828"/><path d="M96.824 152.793c-1.312-1.11-3.162-1.716-4.742-1.077-1.279.505-2.153 1.75-2.456 3.095-.302 1.312-.1 2.725.37 4.037 1.447 4.104 5.55 7.132 9.922 7.334.875.034.404-7.166.269-7.872-.403-2.052-1.782-4.171-3.363-5.517Z" fill="#D68060"/><path d="M98.64 164.264c.168 1.01-.505 1.985-1.514 2.153a1.858 1.858 0 0 1-2.186-1.513 1.92 1.92 0 0 1 1.514-2.187c1.043-.168 2.018.505 2.186 1.547Z" fill="#fff"/><path d="M92.418 154.643c.74-.639 1.85-.706 2.758-.336.874.403 1.58 1.177 1.984 2.052.438.875.606 1.85.707 2.826-.471-.438-1.279-.505-1.817-.101-.538.37-.74 1.177-.47 1.749.302.606 1.042.942 1.681.774" stroke="#915046" stroke-width="2.4" stroke-miterlimit="10" stroke-linecap="round"/></g></svg>