<svg width="55" height="55" fill="none" xmlns="http://www.w3.org/2000/svg"><path d="M27.586 48.125c-11.344 0-20.54-9.195-20.54-20.54 0-11.343 9.196-20.538 20.54-20.538s20.539 9.195 20.539 20.539c0 11.344-9.195 20.539-20.54 20.539Zm0-38.844c-10.055 0-18.305 8.25-18.305 18.305s8.25 18.305 18.305 18.305S45.89 37.64 45.89 27.586c0-10.14-8.25-18.305-18.305-18.305Z" fill="#ED6A8C"/><path d="M21.227 21.055c.343-.946.773-1.72 1.375-2.32a6.72 6.72 0 0 1 2.234-1.462c.86-.343 1.89-.515 3.008-.515.86 0 1.718.172 2.492.43.773.257 1.46.687 2.062 1.117.602.43 1.032 1.117 1.375 1.804.344.688.516 1.547.516 2.493 0 1.203-.258 2.148-.773 3.007-.516.86-1.203 1.633-1.977 2.407l-1.547 1.547c-.43.343-.687.773-.86 1.117-.171.343-.343.773-.343 1.289-.086.515-.086.86-.086 1.804h-1.976c0-.945 0-1.375.171-1.976.086-.688.344-1.203.602-1.805.258-.515.688-1.031 1.117-1.547.516-.515 1.031-1.03 1.719-1.633.602-.515 1.117-1.117 1.46-1.804.43-.688.602-1.461.602-2.235 0-.601-.086-1.203-.343-1.718-.258-.516-.602-.946-.946-1.375-.343-.43-.859-.688-1.46-.86-.516-.172-1.118-.343-1.72-.343-.859 0-1.632.171-2.234.43-.687.257-1.203.687-1.633 1.202-.43.516-.773 1.118-.945 1.805-.172.688-.344 1.29-.258 2.063h-1.976c-.086-1.204 0-1.977.344-2.922Zm5.156 15.039h2.406V38.5h-2.406v-2.406Z" fill="#ED6A8C"/></svg>