<svg width="26" height="26" fill="none" xmlns="http://www.w3.org/2000/svg"><path d="M13.04 22.75a9.71 9.71 0 0 1-9.709-9.71c0-5.362 4.347-9.709 9.71-9.709a9.71 9.71 0 0 1 9.709 9.71c0 5.362-4.347 9.709-9.71 9.709Zm0-18.362c-4.752 0-8.652 3.9-8.652 8.653s3.9 8.653 8.653 8.653 8.653-3.9 8.653-8.653c0-4.794-3.9-8.653-8.653-8.653Z" fill="#111"/><path d="M10.034 9.953c.163-.447.366-.812.65-1.097.285-.284.65-.528 1.057-.69.406-.163.893-.244 1.421-.244.407 0 .813.081 1.179.203.365.122.69.325.975.528.284.203.487.528.65.853.162.325.243.732.243 1.178 0 .57-.122 1.016-.365 1.422-.244.406-.569.772-.935 1.138l-.73.731a1.54 1.54 0 0 0-.407.528 1.346 1.346 0 0 0-.163.61c-.04.243-.04.406-.04.853h-.935c0-.447 0-.65.082-.935.04-.325.162-.569.284-.853.122-.244.325-.487.528-.731.244-.244.488-.488.813-.772a2.78 2.78 0 0 0 .69-.853c.203-.325.285-.69.285-1.056 0-.285-.041-.57-.163-.813-.122-.244-.284-.447-.447-.65-.162-.203-.406-.325-.69-.406-.244-.081-.528-.163-.813-.163-.406 0-.772.082-1.056.204a1.829 1.829 0 0 0-.772.568 2.148 2.148 0 0 0-.447.853c-.081.325-.162.61-.122.975h-.934c-.04-.568 0-.934.162-1.38Zm2.438 7.11h1.137V18.2h-1.137v-1.137Z" fill="#111"/></svg>