<svg width="22" height="23" fill="none" xmlns="http://www.w3.org/2000/svg"><g clip-path="url(#a)"><path d="M21.2 10.302a1.5 1.5 0 0 0-.844-2.534l-5.432-.83a.482.482 0 0 1-.364-.273L12.165 1.55a1.493 1.493 0 0 0-2.704 0L7.066 6.668a.482.482 0 0 1-.364.27l-5.432.837a1.5 1.5 0 0 0-.844 2.534l3.992 4.106a.49.49 0 0 1 .132.417l-.935 5.745a1.495 1.495 0 0 0 2.197 1.552l4.766-2.644a.475.475 0 0 1 .465 0l4.766 2.644a1.495 1.495 0 0 0 2.197-1.552l-.935-5.745a.488.488 0 0 1 .132-.417l3.997-4.113Z" fill="#FF7940"/></g><defs><clipPath id="a"><path fill="#fff" transform="translate(0 .687)" d="M0 0h21.626v21.626H0z"/></clipPath></defs></svg>