<svg width="22" height="23" fill="none" xmlns="http://www.w3.org/2000/svg"><g clip-path="url(#a)"><path d="M21.2 10.302a1.5 1.5 0 0 0-.844-2.534l-5.432-.83a.482.482 0 0 1-.364-.273L12.165 1.55a1.493 1.493 0 0 0-2.704 0L7.066 6.668a.482.482 0 0 1-.364.27l-5.432.837a1.5 1.5 0 0 0-.844 2.534l3.992 4.106a.49.49 0 0 1 .132.417l-.935 5.745a1.495 1.495 0 0 0 2.197 1.552l4.766-2.644a.475.475 0 0 1 .465 0l4.766 2.644a1.495 1.495 0 0 0 2.197-1.552l-.935-5.745a.488.488 0 0 1 .132-.417l3.997-4.113Zm-5.122 4.687.934 5.745a.477.477 0 0 1-.2.476.468.468 0 0 1-.506.027l-4.768-2.64a1.483 1.483 0 0 0-1.448 0l-4.766 2.64a.47.47 0 0 1-.507-.027.477.477 0 0 1-.2-.476l.935-5.745a1.507 1.507 0 0 0-.407-1.292l-3.993-4.1a.48.48 0 0 1-.111-.496.472.472 0 0 1 .383-.324l5.432-.833a1.494 1.494 0 0 0 1.127-.845l2.394-5.12a.48.48 0 0 1 .872 0l2.394 5.12a1.493 1.493 0 0 0 1.129.845l5.432.833a.472.472 0 0 1 .383.324.48.48 0 0 1-.111.495l-3.994 4.1a1.508 1.508 0 0 0-.404 1.293Z" fill="#FF7940"/></g><defs><clipPath id="a"><path fill="#fff" transform="translate(0 .687)" d="M0 0h21.626v21.626H0z"/></clipPath></defs></svg>