<svg width="414" height="325" fill="none" xmlns="http://www.w3.org/2000/svg"><path d="M23.113 293.971S-5.511 250.397 4.843 167.92c11.9-94.738 99.64-148.038 147.696-160.28 32.685-8.334 57.228-10.089 67.125 13.92 9.878 23.99 18.822 34.078 33.448 33.735 14.627-.344 105.551-9.574 137.226 36.88 27.555 40.409 36.861 134.118-4.234 201.567l-362.991.229Z" fill="#E1F3FE"/><path d="M406.623 294.581H1.411v-2.078h405.212v2.078Z" fill="#4C222E"/><path d="M165.906 292.083v-128.74a5.595 5.595 0 0 0-5.587-5.587H69.624a5.595 5.595 0 0 0-5.588 5.587v128.74h101.87Z" fill="#F99247"/><path d="M174.354 292.083v-128.74a5.583 5.583 0 0 0-5.587-5.587h-92.66a5.583 5.583 0 0 0-5.587 5.587v128.74h103.834Z" fill="#FFB940"/><path d="M184.309 292.75c.21 0 .381-.171.381-.381v-27.956a.382.382 0 0 0-.381-.382h-7.571a.382.382 0 0 0-.381.382v27.956c0 .21.171.381.381.381h7.571Z" fill="#0E2E35"/><path d="m123.972 242.94-9.439-4.481-8.486-3.68c-2.346 9.134-8.772 24.161-2.174 34.611 8.047 12.758 51.354 12.948 82.305 10.889-2.213-6.522-3.624-11.48-3.643-11.823-.114-1.049 49.982 1.163 49.982 1.163l7.018-.134c-3.433-5.511-11.252-15.58-16.934-16.228-9.402-1.049-66.763-3.394-84.956-5.645 0 0 1.24-2.193 1.221-2.173-.229.038-14.894-2.499-14.894-2.499Z" fill="#F9956E"/><path d="m213.962 269.485 8.982-17.2s-44.585-19.165-45.691-19.146l11.69 30.854 25.019 5.492Z" fill="#36C5F0"/><path d="m108.125 248.375 13.959 3.185a.521.521 0 0 0 .611-.381.502.502 0 0 0-.382-.63l-13.959-3.204a.517.517 0 0 0-.61.401c-.076.267.076.515.324.61.013 0 .032.007.057.019Z" fill="#21111D"/><path d="M133.507 154.133s-28.433 1.03-39.207 2.517c-16.743 2.327-18.46 45.596-18.46 45.596 0 28.738 3.395 68.079 13.387 80.893 9.916 12.472 31.98 10.393 31.98 10.393l83.583-3.28s4.061-28.204-1.469-38.673l-17.048-.915-15.332-67.278s-3.471-23.284-34.86-28.815c1.202.553-2.574-.438-2.574-.438Z" fill="#36C5F0"/><path d="M122.065 251.827c.096.038.21.038.305.019a.527.527 0 0 0 .401-.629c-.096-.363-8.715-37.072-12.395-60.165-.058-.267-.325-.477-.592-.42a.506.506 0 0 0-.438.591c3.68 23.132 12.319 59.86 12.414 60.242a.495.495 0 0 0 .305.362ZM175.499 251.217a.532.532 0 0 0 .343.019c.286-.096.438-.382.343-.649-.133-.419-12.929-41.057-15.618-55.111a.508.508 0 0 0-.61-.401c-.286.039-.458.325-.401.611 2.67 14.092 15.504 54.806 15.637 55.206a.476.476 0 0 0 .306.325Z" fill="#21111D"/><path d="m179.084 241.491.076.038c.248.076.515 0 .648-.229l3.49-6.007-.038-.19-11.804-51.813c-.077-.457-1.087-6.502-6.217-13.158-4.787-6.236-14.245-14.169-32.075-16.552a.532.532 0 0 0-.591.457.533.533 0 0 0 .457.592c17.43 2.307 26.679 10.03 31.351 16.094 5.072 6.579 6.045 12.682 6.045 12.739l.019.038 11.747 51.622-3.299 5.644a.55.55 0 0 0 .191.725Z" fill="#21111D"/><path d="M197.638 241.72a.524.524 0 0 0 .668-.305.5.5 0 0 0-.286-.668l-15.084-6.026a.524.524 0 0 0-.668.305.5.5 0 0 0 .286.668l15.084 6.026Z" fill="#21111D"/><path d="m217.185 284.551 7.036 6.769 1.373 1.964c.668.916 2.155 1.183 3.357.573 1.22-.592 1.659-1.831 1.01-2.766l.573.82c.648.935 2.154 1.183 3.356.592 1.201-.611 1.64-1.85.991-2.785.649.935 2.155 1.183 3.357.592 1.201-.611 1.659-1.85.991-2.785l-.572-.82c.649.935 2.155 1.202 3.356.592.077-.039.147-.077.21-.115.077-.051.146-.102.21-.152 1.068-.744 1.354-1.469 1.259-2.079-.229-1.278-4.615-7.037-6.637-9.802-3.07-4.31-7.151-8.219-12.967-9.802-.477-.114-11.423-3.47-12.205-3.528-4.424 6.56.839 17.335-4.042 24.543 4.71-.839 8.028-1.487 9.344-1.811Z" fill="#FE9F73"/><path d="M239.306 287.583a.472.472 0 0 0 .114-.058.386.386 0 0 0 .019-.534l-10.183-11.193a.387.387 0 0 0-.534-.02.368.368 0 0 0-.019.534l10.183 11.175c.115.134.267.153.42.096ZM235.263 290.443a.303.303 0 0 0 .114-.076c.153-.134.153-.363.019-.515l-9.248-10.164c-.134-.153-.363-.153-.515-.019a.386.386 0 0 0-.038.534l9.248 10.145a.386.386 0 0 0 .42.095Z" fill="#F07162"/><path d="M227.254 266.72c-3.299-1.201-18.937-6.102-27.632-8.791l-13.483 24.829c12.892 2.899 35.184 5.244 35.184 5.244s10.565-19.584 5.931-21.282Z" fill="#FE9F73"/><path d="m230.515 292.064.114-.076a.368.368 0 0 0 .019-.534l-7.418-8.143a.386.386 0 0 0-.534-.038.386.386 0 0 0-.019.534l7.418 8.162a.393.393 0 0 0 .42.095Z" fill="#F07162"/><path d="m203.321 251.579-12.548 8.696-8.543 22.902 22.56 7.075c3.985-25.801-1.469-38.673-1.469-38.673Z" fill="#36C5F0"/><path d="M206.01 277.38a.53.53 0 0 0 .553-.496c.858-16.972-2.613-25.172-2.765-25.515l-.115-.267-.324-.038c-23.856-2.04-98.38.191-99.124.21a.547.547 0 0 0-.515.553c0 .21.153.4.343.458a.52.52 0 0 0 .191.038c.744-.019 74.563-2.231 98.705-.248.591 1.583 3.318 9.783 2.555 24.771a.502.502 0 0 0 .496.534ZM89.647 282.815c-9.669-12.395-13.197-50.516-13.273-79.425a.53.53 0 0 0-.534-.515.517.517 0 0 0-.515.534c.096 29.043 3.68 67.449 13.502 80.055 6.445 8.276 8.505 9.21.82-.649Z" fill="#21111D"/><path d="M316.443 219.637h-70.425l-24.542 62.53h70.405l24.562-62.53Z" fill="#928DC7"/><path d="M249.699 219.637h-3.681l-24.542 62.53h3.661l24.562-62.53Z" fill="#7570A4"/><path d="M277.14 251.198c.973-2.88.248-5.721-1.602-6.351-1.869-.629-4.157 1.183-5.13 4.062-.972 2.861-.267 5.702 1.583 6.35 1.869.63 4.157-1.201 5.149-4.061Z" fill="#E2F2F1"/><path d="M224.489 282.167v-5.054h-26.298a2.515 2.515 0 0 0-2.517 2.518 2.519 2.519 0 0 0 2.517 2.536h26.298Z" fill="#7570A4"/><path d="M221.475 278.849h-16.628v.782h16.628v-.782Z" fill="#928DC7"/><path d="m133.679 138.133-2.136-21.529-26.583-4.081 1.659 24.905s1.85 19.394 2.727 22.063c.858 2.67 1.544 7.59 11.06 7.228 2.289-.096 4.253-.82 5.874-1.526 3.337-1.449 5.129-5.11 4.348-8.676l-2.155-9.593c6.235-1.544 5.206-8.791 5.206-8.791Z" fill="#FE9F73"/><path d="M128.473 146.924s-7.533 2.079-15.142-4.862c0 0 3.013 8.791 16.19 9.554l-1.048-4.692Z" fill="#F07162"/><path d="M105.131 110.044c-5.244 6.35.725 16.075.725 16.075.019-1.239.191-2.345.477-3.337 1.068 2.346 3.013 6.465 4.519 8.982l2.002-.515a59.589 59.589 0 0 0-.286-1.564c-1.411-7.151-1.296-10.85-.896-12.757 2.174-.916 4.863-1.354 7.99-1.469 3.147-.095 5.664.534 7.571 1.373l3.452 2.136c.82.687 1.22 1.202 1.22 1.202a12.63 12.63 0 0 0-.172-.553l.115.076c.248-.267 2.021-8.677-6.579-11.861-7.609-3.624-17.525-.973-20.138 2.212Z" fill="#000"/><path d="m103.32 128.846 3.985-1.792-3.07-7.609.896-9.401s-6.903 4.462-1.811 18.802Z" fill="#000"/><path d="M115.372 128.999c.133-.172 3.413-4.291 7.036-1.907a.306.306 0 0 0 .42-.076.303.303 0 0 0-.095-.42c-4.081-2.708-7.819 1.983-7.838 2.022a.307.307 0 0 0 .038.438.51.51 0 0 0 .229.057.461.461 0 0 0 .21-.114ZM127.576 125.967c.039-.038 2.384-2.498 3.929-1.411a.304.304 0 0 0 .419-.077c.096-.133.077-.324-.076-.419-1.964-1.392-4.596 1.373-4.71 1.487-.115.115-.096.305.019.42.057.076.152.095.229.095.076-.019.152-.038.19-.095Z" fill="#21111D"/><path d="M121.379 129.724a.935.935 0 0 0-1.011-.82.906.906 0 0 0-.801 1.01c.038.496.496.858.992.82a.935.935 0 0 0 .82-1.01ZM130.894 127.874a.907.907 0 0 0-1.01-.82.889.889 0 0 0-.801.991.904.904 0 0 0 .991.821.928.928 0 0 0 .82-.992Z" fill="#000"/><path d="M105.97 137.085c2.994-.287 5.187-2.975 4.882-5.988-.305-3.013-2.975-5.225-5.969-4.92-2.994.305-5.167 2.975-4.881 6.007.305 3.013 2.974 5.206 5.968 4.901Z" fill="#FE9F73"/><path d="M103.854 131.192c1.43-1.106 2.841.019 2.917.076l.42.344-.191-.515c-.324-.916-.858-1.545-1.583-1.85-1.239-.534-2.612.057-2.669.095-.077.019-.096.115-.077.191.038.076.134.114.21.076.019 0 1.297-.572 2.422-.076.521.229.928.642 1.22 1.239-.591-.324-1.716-.686-2.841.172-.763.591-1.011 1.602-.61 2.574.324.84 1.163 1.621 2.288 1.507h.038a.182.182 0 0 0 .134-.172c-.019-.095-.096-.152-.172-.133h-.019c-1.049.095-1.716-.629-2.002-1.316-.248-.629-.267-1.602.515-2.212ZM125.021 135.464c.019.057.076.095.153.076h.038l3.146-1.411-1.716-7.304a.159.159 0 0 0-.191-.114c-.076.019-.133.095-.095.19l1.659 7.056-2.918 1.297c-.076.038-.114.133-.076.21Z" fill="#F07162"/><path d="M125.879 139.602c1.03-.096 1.049-.534 1.049-.534s-1.43-1.469-1.85-.229c0 0-.381.858.801.763Z" fill="#FBFDFC"/><path d="M132.153 122.649s-.229-4.424-.534-5.378c-.324-.953-10.431-2.746-15.751-1.468-5.302 1.277 5.72 6.159 5.854 6.159.114-.019 10.431.687 10.431.687ZM107.057 112.923l5.607 6.598.095-2.269-5.702-4.329Z" fill="#FE9F73"/><path d="m108.907 132.279 3.947-1.03-3.813-12.757s-6.141.972-4.653 4.157c1.487 3.165 1.468 3.47 1.468 3.47l3.051 6.16ZM76.546 158.214h11.69v-.897h-11.69c-.057 0-5.607.229-6.35 5.187v.039l-.115 49.504h.877l.134-49.447c.648-4.176 5.282-4.386 5.454-4.386ZM63.597 166.07v121.837h.897V166.07h-.897ZM174.793 184.053c.019-.648.438-16.057 0-20.729-.477-4.958-5.321-5.987-5.359-6.007h-8.505v.897h8.372c.457.095 4.214 1.068 4.615 5.187.438 4.615 0 20.461-.019 20.633l.896.019Z" fill="#000"/><path d="M412.42 288.593H0v6.122h412.42v-6.122Z" fill="#00A38A"/><path d="M412.42 282.148H0v8.314h412.42v-8.314ZM274.604 108.442a5.51 5.51 0 0 1-2.251-6.98c.344-.801 3.585-7.99 9.039-12.815 6.637-5.873 15.924-6.979 23.38-7.875 2.708-.325 5.244-.63 6.808-1.106 4.863-1.45 6.712-6.35 7.399-10.222.4-2.269-.248-5.072-1.793-7.685-1.773-3.032-4.576-5.568-7.914-7.19-7.055-3.394-11.88-2.707-11.918-2.688a5.524 5.524 0 0 1-6.522-4.31c-.61-2.974 1.316-5.892 4.31-6.521.82-.153 8.371-1.488 18.917 3.585 5.282 2.536 9.783 6.636 12.662 11.537 2.88 4.9 3.986 10.317 3.128 15.198-.782 4.424-2.327 8.238-4.596 11.366-2.67 3.7-6.217 6.236-10.508 7.513-2.479.744-5.473 1.106-8.657 1.488-5.931.705-13.311 1.583-17.392 5.187-3.051 2.708-5.549 7.399-6.236 8.962-1.22 2.804-4.481 4.062-7.265 2.842a8.075 8.075 0 0 1-.591-.286ZM274.814 120.723c-1.64 2.803-5.245 3.737-8.048 2.097-2.803-1.64-3.757-5.244-2.117-8.047a5.905 5.905 0 0 1 8.067-2.117 5.883 5.883 0 0 1 2.098 8.067Z" fill="#00C1A3"/><path d="M274.947 108.785c-.14-.076-.273-.153-.4-.229a5.64 5.64 0 0 1-2.327-7.151c.343-.82 3.604-8.028 9.077-12.853 6.675-5.912 15.981-7.018 23.456-7.914.076-.019.153.038.153.115.019.076-.039.152-.115.152-7.437.896-16.705 2.002-23.303 7.857-5.435 4.786-8.658 11.957-9.02 12.757a5.391 5.391 0 0 0 2.212 6.808c.178.102.362.197.553.286a5.41 5.41 0 0 0 4.119.077 5.25 5.25 0 0 0 2.975-2.842c.038-.076.114-.114.191-.076.057.019.095.114.057.172a5.544 5.544 0 0 1-3.108 3.013c-1.412.534-2.956.515-4.329-.096l-.191-.076ZM306.031 91.851c-.038-.019-.077-.057-.077-.095-.019-.076.039-.153.115-.153 3.184-.381 6.178-.743 8.638-1.487 4.253-1.259 7.781-3.776 10.451-7.475 2.25-3.09 3.775-6.904 4.557-11.29.858-4.862-.248-10.221-3.127-15.122-.038-.057-.019-.153.057-.19.057-.039.153-.02.191.056 2.898 4.94 4.023 10.374 3.146 15.313-.782 4.425-2.326 8.258-4.615 11.404-2.708 3.738-6.255 6.293-10.583 7.57-2.479.744-5.492 1.107-8.677 1.488a.168.168 0 0 1-.076-.019Z" fill="#000"/><path d="M318.922 69.578c-.057-.02-.096-.096-.077-.153.382-2.25-.247-5.015-1.773-7.609-1.754-2.994-4.558-5.53-7.876-7.113a.233.233 0 0 0-.057-.038c-6.941-3.318-11.709-2.65-11.766-2.65a5.61 5.61 0 0 1-4.253-.82 5.676 5.676 0 0 1-2.421-3.586 5.674 5.674 0 0 1 4.405-6.693c.076 0 .152.038.171.114.019.077-.038.153-.114.172a5.389 5.389 0 0 0-4.195 6.35 5.422 5.422 0 0 0 2.307 3.414 5.445 5.445 0 0 0 4.062.782c.038-.02 4.863-.706 11.918 2.67l.077.038c3.356 1.62 6.197 4.176 7.99 7.227 1.545 2.65 2.193 5.492 1.792 7.8-.019.076-.095.114-.152.095h-.038ZM267.147 123.183c-1.487-.725-2.688-2.041-3.184-3.738-.038-.076.019-.153.076-.172.076-.019.153.019.191.096a5.732 5.732 0 0 0 7.132 3.89 5.765 5.765 0 0 0 3.432-2.765 5.714 5.714 0 0 0 .458-4.367c-.019-.076.019-.153.095-.191.077-.019.153.038.172.096a5.943 5.943 0 0 1-.496 4.595 5.979 5.979 0 0 1-3.585 2.899 6.02 6.02 0 0 1-4.291-.343Z" fill="#000"/><path d="M103.091 54.684a2.898 2.898 0 0 1-3.738-.858c-.267-.381-2.593-3.757-3.28-7.475-.839-4.558 1.163-9.001 2.765-12.567.572-1.278 1.125-2.498 1.335-3.318.649-2.575-1.049-4.71-2.574-6.045-.916-.801-2.346-1.259-3.929-1.278-1.811-.019-3.718.553-5.32 1.602-3.414 2.25-4.405 4.577-4.405 4.596a2.862 2.862 0 0 1-3.662 1.754 2.862 2.862 0 0 1-1.754-3.661c.133-.42 1.564-4.138 6.655-7.495 2.575-1.678 5.607-2.574 8.563-2.555 2.975.038 5.682.992 7.628 2.689 1.754 1.544 3.051 3.242 3.833 5.091.934 2.213 1.125 4.463.533 6.732-.324 1.297-.972 2.727-1.659 4.253-1.277 2.841-2.86 6.369-2.345 9.153.381 2.098 1.811 4.462 2.326 5.187a2.897 2.897 0 0 1-.686 4.024c-.102.063-.197.12-.286.171ZM108.621 57.888a3.056 3.056 0 0 1-1.22 4.157 3.051 3.051 0 0 1-4.158-1.22 3.05 3.05 0 0 1 1.221-4.157 3.055 3.055 0 0 1 4.157 1.22Z" fill="#36C5F0"/><path d="M103.339 54.627a2.843 2.843 0 0 0-.21.115 2.959 2.959 0 0 1-3.833-.878c-.267-.381-2.613-3.775-3.3-7.513-.838-4.558 1.164-9.02 2.766-12.586.019-.038.057-.057.095-.038.038.019.058.057.038.095-1.601 3.547-3.585 7.99-2.746 12.51.687 3.7 3.013 7.075 3.261 7.437.839 1.163 2.403 1.526 3.643.858l.267-.19a2.632 2.632 0 0 0 1.144-1.812 2.78 2.78 0 0 0-.458-2.079c-.038-.038-.019-.076 0-.114.038-.02.076-.02.115.019a2.94 2.94 0 0 1 .495 2.212 2.941 2.941 0 0 1-1.201 1.907.298.298 0 0 0-.076.057ZM104.121 36.206a.083.083 0 0 1-.077 0c-.038-.02-.038-.057-.038-.096.687-1.506 1.335-2.955 1.659-4.233.591-2.25.401-4.5-.515-6.674-.781-1.85-2.078-3.547-3.833-5.073-1.926-1.697-4.614-2.632-7.57-2.67a.082.082 0 0 1-.077-.076c0-.038.039-.057.077-.057 2.975.019 5.701.991 7.666 2.689 1.773 1.544 3.07 3.26 3.871 5.13.934 2.211 1.106 4.48.534 6.77-.343 1.296-.992 2.726-1.678 4.252 0 .012-.007.025-.019.038Z" fill="#000"/><path d="M97.637 24.478c-.038.019-.057.019-.095-.02-.897-.762-2.308-1.22-3.872-1.239-1.811-.019-3.68.534-5.282 1.602-.013 0-.025.006-.038.02-3.337 2.211-4.329 4.5-4.329 4.538a2.93 2.93 0 0 1-1.506 1.659 3.024 3.024 0 0 1-2.27.133 2.976 2.976 0 0 1-1.792-3.775c.019-.038.057-.058.095-.038.038.018.057.057.038.095a2.813 2.813 0 0 0 1.717 3.585c.705.248 1.468.21 2.135-.114a2.754 2.754 0 0 0 1.43-1.602c.02-.02 1.011-2.365 4.406-4.615.012 0 .025-.007.038-.02 1.62-1.067 3.528-1.64 5.377-1.62 1.583.019 3.033.496 3.948 1.296.038.02.038.058.019.096-.013 0-.02.006-.02.019ZM107.668 61.969a3.179 3.179 0 0 1-2.537.42c-.038 0-.057-.039-.038-.077 0-.038.038-.076.076-.057a2.935 2.935 0 0 0 2.403-.4c.61-.4 1.068-.992 1.259-1.736.191-.782.095-1.583-.324-2.288a2.91 2.91 0 0 0-1.831-1.373c-.038-.02-.057-.057-.038-.096 0-.038.038-.057.076-.038a3.09 3.09 0 0 1 1.926 1.45c.42.724.534 1.563.324 2.364a3.163 3.163 0 0 1-1.296 1.83Z" fill="#000"/><path d="M203.035 83.155c-1.735.115-3.337-1.106-3.642-2.86-.115-.534-.954-5.454.21-9.897 1.411-5.435 5.892-9.287 9.477-12.395 1.297-1.126 2.537-2.175 3.185-2.975 2.04-2.48 1.278-5.702.267-7.971-.591-1.335-1.926-2.575-3.642-3.414-2.003-.953-4.386-1.297-6.694-.953-4.901.705-7.189 2.765-7.208 2.784-1.335 1.373-3.547 1.392-4.92.038a3.453 3.453 0 0 1-.057-4.92c.381-.382 3.852-3.757 11.174-4.806 3.681-.534 7.476.02 10.718 1.564 3.242 1.564 5.74 4.005 7.017 6.884 1.144 2.575 1.678 5.13 1.602 7.57-.095 2.9-1.068 5.474-2.86 7.648-1.03 1.258-2.479 2.517-4.024 3.833-2.86 2.479-6.407 5.55-7.285 8.867-.648 2.498-.286 5.835-.095 6.903a3.49 3.49 0 0 1-2.822 4.062 2.044 2.044 0 0 1-.401.038ZM207.479 89.525c.133 2.04-1.431 3.814-3.471 3.947-2.06.134-3.833-1.43-3.948-3.47a3.72 3.72 0 0 1 3.471-3.967 3.743 3.743 0 0 1 3.948 3.49Z" fill="#FD7583"/><path d="m203.34 83.213-.305.038a3.567 3.567 0 0 1-3.737-2.937c-.096-.553-.935-5.473.229-9.935 1.411-5.454 5.892-9.325 9.496-12.434a.093.093 0 0 1 .134 0 .118.118 0 0 1-.019.134c-3.585 3.09-8.048 6.941-9.44 12.338-1.163 4.424-.324 9.325-.229 9.859.305 1.716 1.85 2.898 3.566 2.803.128-.013.261-.032.401-.057a3.361 3.361 0 0 0 2.174-1.411c.515-.744.724-1.64.553-2.537 0-.057.019-.095.076-.095.038-.019.095.02.095.057a3.623 3.623 0 0 1-.572 2.69 3.6 3.6 0 0 1-2.307 1.468.36.36 0 0 1-.115.019ZM213.657 63.38c-.025 0-.051-.013-.076-.038-.038-.038-.038-.095 0-.114 1.545-1.316 2.975-2.575 4.004-3.814 1.793-2.174 2.747-4.749 2.842-7.61.095-2.421-.458-4.957-1.583-7.532-1.278-2.86-3.757-5.282-6.979-6.827-.039-.019-.058-.076-.039-.133.02-.038.077-.057.115-.038 3.261 1.582 5.778 4.023 7.056 6.922 1.144 2.593 1.697 5.149 1.602 7.609-.096 2.917-1.068 5.511-2.88 7.704-1.03 1.278-2.479 2.517-4.024 3.852-.012.013-.025.02-.038.02Z" fill="#000"/><path d="M212.551 47.152a.104.104 0 0 1-.095-.057c-.592-1.316-1.907-2.537-3.604-3.357-1.984-.953-4.348-1.296-6.656-.972-.013.013-.025.019-.038.019-4.825.706-7.075 2.727-7.094 2.746a3.597 3.597 0 0 1-2.536 1.087c-.954 0-1.85-.362-2.536-1.03-1.393-1.392-1.431-3.661-.039-5.072.039-.02.096-.02.115 0a.092.092 0 0 1 0 .133 3.418 3.418 0 0 0 .057 4.806 3.28 3.28 0 0 0 2.403.972c.915 0 1.773-.362 2.403-1.01.019-.02 2.307-2.08 7.208-2.804.013 0 .025-.006.038-.019 2.327-.324 4.729.02 6.751.973 1.735.839 3.089 2.097 3.68 3.451.019.058 0 .096-.038.115l-.019.019ZM204.332 93.53a3.763 3.763 0 0 1-2.994-.84c-.038-.019-.038-.076-.019-.114.038-.038.095-.057.134-.02a3.65 3.65 0 0 0 2.841.802 3.618 3.618 0 0 0 2.269-1.278c.63-.744.916-1.697.82-2.67a3.69 3.69 0 0 0-1.297-2.46c-.038-.019-.038-.076-.019-.114a.118.118 0 0 1 .134-.02 3.783 3.783 0 0 1 1.354 2.594 3.785 3.785 0 0 1-.858 2.784 3.835 3.835 0 0 1-2.365 1.335Z" fill="#000"/><path d="M307.442 176.769a3.474 3.474 0 0 1 2.746-3.738c.534-.115 5.415-1.125 9.897-.115 5.473 1.24 9.477 5.588 12.7 9.078 1.163 1.258 2.25 2.46 3.07 3.089 2.556 1.945 5.74 1.087 7.972 0 1.315-.629 2.517-2.002 3.299-3.757.877-2.021 1.144-4.405.743-6.712-.877-4.882-3.013-7.094-3.032-7.113a3.492 3.492 0 0 1-.21-4.92c1.316-1.431 3.528-1.526 4.94-.21.4.362 3.871 3.738 5.167 11.003.649 3.662.21 7.475-1.22 10.775-1.468 3.299-3.814 5.854-6.655 7.227-2.537 1.22-5.073 1.85-7.514 1.85-2.898 0-5.492-.897-7.742-2.613-1.297-.991-2.594-2.403-3.967-3.89-2.555-2.784-5.74-6.236-9.077-6.999-2.517-.553-5.854-.095-6.922.134a3.495 3.495 0 0 1-4.138-2.689 3.5 3.5 0 0 1-.057-.4ZM301.225 181.422c-2.041.19-3.871-1.297-4.062-3.357a3.735 3.735 0 0 1 3.356-4.062 3.735 3.735 0 0 1 4.062 3.357c.191 2.04-1.316 3.852-3.356 4.062Z" fill="#FFB940"/><path d="M307.384 177.074a28.218 28.218 0 0 0-.038-.305c-.171-1.793 1.049-3.452 2.823-3.833.534-.115 5.434-1.107 9.935-.096 5.511 1.24 9.516 5.588 12.738 9.096.039.039.039.096 0 .115a.092.092 0 0 1-.133 0c-3.204-3.471-7.189-7.819-12.643-9.039-4.463-1.011-9.325-.019-9.859.095a3.43 3.43 0 0 0-2.689 3.662c.013.127.038.254.076.381a3.38 3.38 0 0 0 1.469 2.155 3.44 3.44 0 0 0 2.555.457c.057 0 .095.02.114.077 0 .038-.019.095-.076.095a3.52 3.52 0 0 1-2.689-.496 3.49 3.49 0 0 1-1.544-2.25l-.039-.114ZM327.56 186.742c0-.025.007-.051.019-.076a.093.093 0 0 1 .134 0c1.373 1.487 2.65 2.879 3.947 3.871 2.231 1.716 4.806 2.593 7.685 2.593 2.422 0 4.939-.61 7.476-1.83 2.822-1.354 5.167-3.91 6.598-7.19.019-.057.076-.076.114-.057.057.019.076.076.057.115-1.468 3.318-3.833 5.911-6.693 7.284-2.556 1.24-5.092 1.869-7.552 1.85-2.917 0-5.53-.877-7.799-2.613-1.297-1.01-2.594-2.421-3.967-3.909-.012-.013-.019-.025-.019-.038Z" fill="#000"/><path d="M343.75 185.102c-.019-.038 0-.076.039-.095 1.296-.63 2.479-1.984 3.241-3.719.897-2.002 1.164-4.367.744-6.655v-.057c-.877-4.787-2.975-6.98-2.994-6.999a3.568 3.568 0 0 1-1.144-2.498 3.492 3.492 0 0 1 .934-2.556 3.55 3.55 0 0 1 5.054-.209c.038.019.038.076 0 .114-.019.038-.076.038-.115 0-1.373-1.258-3.547-1.182-4.805.21a3.373 3.373 0 0 0-.896 2.441 3.356 3.356 0 0 0 1.087 2.364c.038.02 2.173 2.232 3.051 7.094v.058c.419 2.326.152 4.729-.744 6.769-.782 1.774-2.002 3.166-3.337 3.795-.038.019-.096.019-.115-.038v-.019ZM297.125 178.389a3.784 3.784 0 0 1 .725-3.013.117.117 0 0 1 .133-.019.119.119 0 0 1 .019.134 3.575 3.575 0 0 0-.705 2.86c.152.858.61 1.659 1.353 2.231a3.635 3.635 0 0 0 2.67.744 3.67 3.67 0 0 0 2.422-1.392c.038-.038.076-.038.114-.019.039.038.058.095.02.134a3.809 3.809 0 0 1-2.537 1.449 3.825 3.825 0 0 1-2.803-.782 3.67 3.67 0 0 1-1.411-2.327Z" fill="#000"/><path d="M352.294 103.045c-.649-.858-.592-2.079.19-2.841.248-.23 2.441-2.346 5.092-3.28 3.242-1.145 6.732-.191 9.535.572 1.01.267 1.964.515 2.593.591 1.945.172 3.318-1.316 4.119-2.594.477-.762.649-1.868.477-3.032-.191-1.335-.839-2.65-1.792-3.718-2.041-2.231-3.872-2.689-3.891-2.689a2.126 2.126 0 0 1-1.716-2.48 2.155 2.155 0 0 1 2.498-1.715c.305.057 3.204.667 6.255 4.023 1.526 1.678 2.555 3.795 2.86 5.97.325 2.173-.057 4.27-1.067 5.892-.916 1.468-2.022 2.612-3.28 3.413-1.507.935-3.147 1.335-4.863 1.163-.992-.095-2.117-.4-3.318-.705-2.231-.61-4.997-1.373-6.98-.668-1.487.534-3.051 1.85-3.528 2.308a2.14 2.14 0 0 1-3.032-.019l-.152-.191ZM350.596 107.469a2.297 2.297 0 0 1-3.203-.4 2.297 2.297 0 0 1 .419-3.204 2.259 2.259 0 0 1 3.185.42c.763.991.591 2.421-.401 3.184ZM145.063 28.578a2.152 2.152 0 0 1-1.811-2.212c.019-.324.171-3.375 1.468-5.874 1.564-3.05 4.748-4.767 7.304-6.121.915-.496 1.792-.973 2.288-1.354 1.545-1.22 1.526-3.242 1.221-4.73-.172-.876-.801-1.792-1.717-2.516-1.068-.84-2.441-1.354-3.871-1.469-3.013-.229-4.653.706-4.672.706a2.106 2.106 0 0 1-2.937-.63 2.131 2.131 0 0 1 .63-2.955c.267-.172 2.784-1.717 7.303-1.373 2.27.171 4.463 1.01 6.179 2.364 1.735 1.373 2.898 3.147 3.28 5.035.324 1.697.305 3.299-.057 4.729-.458 1.716-1.373 3.127-2.727 4.195-.782.61-1.812 1.163-2.918 1.755-2.021 1.087-4.558 2.44-5.511 4.31-.725 1.41-.954 3.451-.992 4.119-.038 1.163-1.03 2.078-2.212 2.04a1.52 1.52 0 0 1-.248-.02ZM146.856 32.964a2.267 2.267 0 0 1-2.594 1.888 2.254 2.254 0 0 1-1.888-2.594 2.267 2.267 0 0 1 2.594-1.907 2.262 2.262 0 0 1 1.888 2.613Z" fill="#FFB940" style="mix-blend-mode:multiply"/><path d="M323.441 131.917a1.331 1.331 0 0 1 .515-1.64c.172-.096 1.755-1.03 3.433-1.221 2.059-.21 3.966.82 5.511 1.659.553.305 1.068.572 1.43.706 1.125.381 2.136-.305 2.784-.954.382-.381.63-.991.687-1.697a4.196 4.196 0 0 0-.534-2.422c-.877-1.602-1.888-2.117-1.907-2.117a1.285 1.285 0 0 1-.649-1.697 1.265 1.265 0 0 1 1.679-.648c.19.076 1.792.839 3.127 3.204.648 1.201.953 2.574.839 3.89-.095 1.335-.61 2.498-1.449 3.318a6.574 6.574 0 0 1-2.384 1.545 4.54 4.54 0 0 1-3.013 0c-.572-.191-1.182-.515-1.831-.878-1.239-.667-2.746-1.487-4.004-1.354-.954.115-2.041.668-2.384.878a1.297 1.297 0 0 1-1.773-.439 1.206 1.206 0 0 0-.077-.133ZM321.839 134.262a1.353 1.353 0 0 1-1.811-.667c-.305-.687 0-1.507.686-1.812a1.359 1.359 0 0 1 1.812.668c.305.686 0 1.506-.687 1.811Z" fill="#36C5F0"/><path d="M323.479 132.031a.506.506 0 0 1-.057-.114c-.286-.592-.057-1.316.515-1.659.172-.115 1.773-1.049 3.452-1.221 2.059-.229 3.985.82 5.511 1.64.019.019.038.038.019.057 0 0-.019.019-.038 0-1.526-.82-3.433-1.85-5.473-1.64-1.678.191-3.261 1.106-3.433 1.221a1.23 1.23 0 0 0-.496 1.582c.026.051.051.096.077.134.171.286.438.477.762.572.325.076.668.019.954-.152 0 0 .019 0 .038.019 0 .019 0 .038-.019.038-.286.19-.648.229-.992.152a1.272 1.272 0 0 1-.801-.591c-.012-.013-.019-.025-.019-.038ZM331.641 132.984v-.038s.019-.019.038 0c.668.344 1.278.687 1.85.878a4.543 4.543 0 0 0 2.975-.02c.858-.286 1.659-.8 2.384-1.525.82-.82 1.335-1.983 1.449-3.299 0-.019.019-.019.038-.019 0 0 .019.019.019.038-.114 1.316-.629 2.498-1.449 3.318-.744.744-1.564 1.259-2.422 1.545-1.011.343-2.021.362-3.032.019-.553-.191-1.182-.534-1.831-.877a.769.769 0 0 0-.019-.02Z" fill="#000"/><path d="M337.076 130.486c0-.012.006-.025.019-.038.362-.381.61-.991.687-1.678a4.44 4.44 0 0 0-.553-2.422c-.878-1.564-1.869-2.078-1.869-2.097a1.32 1.32 0 0 1-.706-.725 1.331 1.331 0 0 1 .019-1.011 1.338 1.338 0 0 1 1.736-.667c.019 0 .019.019.019.038s-.019.038-.038.019a1.283 1.283 0 0 0-1.66.648 1.275 1.275 0 0 0-.019.954c.134.305.363.553.668.686.019.019 1.011.534 1.907 2.117v.019c.419.763.629 1.621.553 2.441-.057.706-.324 1.335-.706 1.716-.019.019-.038.019-.038 0h-.019ZM320.047 133.709a1.402 1.402 0 0 1-.096-1.144c0-.019.02-.019.039-.019s.019.019.019.038c-.134.381-.077.763.095 1.087.153.286.42.515.744.61.324.115.686.096 1.01-.057.325-.153.573-.439.687-.763 0-.019.019-.038.038-.019.019 0 .019.019.019.038-.114.344-.381.63-.705.801a1.393 1.393 0 0 1-1.068.077 1.555 1.555 0 0 1-.782-.649Z" fill="#000"/><path d="M255.516 23.735c.26-2.08 1.729-3.742 2.955-5.122.437-.474.865-.96 1.083-1.297h.001l.001-.003c.699-1.13.196-2.405-.304-3.232-.311-.519-.92-.937-1.648-1.173a4.602 4.602 0 0 0-2.685-.04c-.932.262-1.6.622-2.038.922-.218.15-.379.285-.487.385a2.245 2.245 0 0 0-.157.162.723.723 0 0 0-.014.019l-.004.007c-.388.513-1.142.614-1.664.228a1.186 1.186 0 0 1-.219-1.67h.001l.006-.009c.095-.142 1.228-1.568 3.936-2.34 1.345-.373 2.782-.353 4.066.075 1.287.429 2.323 1.21 2.93 2.203.563.92.896 1.83.969 2.735l.001.003a4.597 4.597 0 0 1-.683 2.972l-.001.002c-.315.519-.8 1.06-1.318 1.636-.485.543-1.035 1.16-1.485 1.808-.449.646-.808 1.338-.899 2.032v.002c-.118 1.006.195 2.29.31 2.693l.002.005a1.19 1.19 0 0 1-.754 1.5l-.071.018-.07.017a1.22 1.22 0 0 1-1.379-.86c-.108-.377-.591-2.064-.381-3.678ZM256.659 31.142v-.001a1.273 1.273 0 1 1 2.498-.493c.137.7-.307 1.38-1.002 1.515a1.276 1.276 0 0 1-1.496-1.021Z" fill="#00C1A3" stroke="#111" stroke-width=".31"/><path fill-rule="evenodd" clip-rule="evenodd" d="m251.968 125.357 7.113 3.566-1.621 5.587a21.39 21.39 0 0 1 4.653 5.359l5.759-.82 1.259 3.775 1.258 3.776-5.091 2.804a21.634 21.634 0 0 1-.496 7.074l4.634 3.509-3.547 7.113-5.587-1.621a21.408 21.408 0 0 1-5.359 4.653l.801 5.759-3.776 1.259-3.757 1.259-2.822-5.092c-2.326.21-4.729.057-7.075-.496l-3.49 4.634-3.566-1.773-3.547-1.774 1.602-5.587a22.249 22.249 0 0 1-4.653-5.359l-5.759.801-1.258-3.776-1.259-3.776 5.111-2.803a21.65 21.65 0 0 1 .496-7.075l-4.653-3.509 3.566-7.113 5.587 1.621a22.23 22.23 0 0 1 5.359-4.653l-.82-5.759 3.775-1.258 3.776-1.259 2.803 5.092c2.346-.21 4.73-.057 7.094.515l3.49-4.653Zm-1.907 12.7c-7.38-3.68-16.343-.706-20.023 6.674-3.681 7.361-.706 16.324 6.674 20.024 7.361 3.68 16.324.686 20.024-6.675 3.68-7.38.686-16.343-6.675-20.023ZM371.935 226.407l1.85.934 1.85.916-.839 2.898a11.612 11.612 0 0 1 2.422 2.784l2.994-.419.648 1.964.648 1.964-2.65 1.45c.114 1.22.038 2.46-.248 3.68l2.403 1.812-1.85 3.699-2.899-.839a11.124 11.124 0 0 1-2.784 2.403l.42 2.994-1.945.648-1.965.668-1.449-2.651c-1.22.114-2.46.038-3.68-.267l-1.812 2.422-1.85-.935-1.85-.915.839-2.898a11.572 11.572 0 0 1-2.421-2.785l-2.994.42-.649-1.964-.648-1.945 2.651-1.469a11.38 11.38 0 0 1 .248-3.68l-2.403-1.812.915-1.85.935-1.83 2.898.82a11.124 11.124 0 0 1 2.784-2.403l-.419-2.994 1.945-.648 1.964-.649 1.468 2.632a11.349 11.349 0 0 1 3.662.267l1.811-2.422Zm-.991 6.598c-3.814-1.907-8.467-.362-10.393 3.452-1.907 3.833-.363 8.486 3.471 10.393a7.737 7.737 0 0 0 10.392-3.452c1.907-3.833.363-8.486-3.47-10.393Z" fill="#FFB940"/></svg>